<?xml version="1.0" encoding="utf-8"?>
<!-- Generator: Adobe Illustrator 26.1.0, SVG Export Plug-In . SVG Version: 6.00 Build 0)  -->
<svg version="1.1" id="Layer_1" xmlns="http://www.w3.org/2000/svg" xmlns:xlink="http://www.w3.org/1999/xlink" x="0px" y="0px" width="968"
	 viewBox="0 0 968 196.7" style="enable-background:new 0 0 968 196.7;" xml:space="preserve">
<style type="text/css">
	.st0{fill:#FFFFFF;}
</style>
<g>
	<path class="st0" d="M48.5,51C47.1,69.9,35.3,99.7,13,140.5C6.4,127.6,2.8,113.1,2.8,97.6c0-18.2,5.1-35.2,13.9-49.7h27.9
		c1.7,0,2.7,0.2,3.2,0.6C48.2,48.9,48.5,49.7,48.5,51z"/>
	<path class="st0" d="M66.3,26.2c-6.1-3.6-14.3-5.4-24.4-5.5C57.7,9.1,77.1,2.3,98.1,2.3c21.8,0,41.8,7.3,57.9,19.5
		c-13,0.8-26.9,5.6-41.8,14.3C97.9,45.7,84.1,56,73,67.1c1.8-6.3,2.8-12.7,2.8-19.1C75.8,37.1,72.6,29.8,66.3,26.2z"/>
	<path class="st0" d="M116.3,184.4h21.5c-12.1,5.5-25.5,8.6-39.7,8.6c-26.2,0-50-10.6-67.2-27.7c7-10.6,11.6-17.5,13.8-20.8
		c2.2-3.2,6.7-9.5,13.5-18.9c6.8-9.3,11.9-16,15.4-19.8c3.5-3.9,8.6-9.3,15.3-16.4c6.7-7,12.6-12.4,17.8-16.1
		c5.2-3.7,11.2-7.6,18.2-11.7c6.9-4.1,13.8-7.3,20.7-9.7c3.7-1.3,9.2-2.1,16.7-2.5c4.4,0.4,7,2.7,7.8,6.9c0,7-4.1,15.2-12.2,24.5
		c-8.4,9.6-17,16.2-26,20.1c-15.9,7-34.7,11.6-56.3,13.9l-8.9,27.7c7.6,0.2,14,1.2,19.3,3.1c5.3,1.9,9.8,4.8,13.5,8.9
		c3.7,4.1,6.6,7.9,8.6,11.5c2,3.6,4.4,8.7,7.2,15.4c0.2,0.4,0.4,0.8,0.6,1.4C115.9,183.4,116.1,184,116.3,184.4z"/>
	<path class="st0" d="M193.6,97.6c0,22.4-7.7,43.1-20.7,59.4h-38.5c-3.9-8.7-8.8-16-14.7-21.9c30.7-9.6,52.8-25.2,66.3-46.9
		c2.2-3.3,4.1-6.6,5.6-9.9C192.9,84.5,193.6,91,193.6,97.6z"/>
</g>
<g>
	<path class="st0" d="M294.4,165.3l-31.1-54.1h-16.9v54.1h-22.2v-135h46.6c10.4,0,19.2,1.8,26.4,5.4c7.2,3.6,12.6,8.5,16.1,14.6
		c3.6,6.1,5.3,12.9,5.3,20.4c0,8.8-2.6,16.8-7.7,24s-13,12.1-23.6,14.7l33.4,56H294.4z M246.3,93.6h24.5c8.3,0,14.6-2.1,18.8-6.2
		c4.2-4.1,6.3-9.7,6.3-16.7c0-7-2.1-12.5-6.2-16.4c-4.2-4-10.4-5.9-18.9-5.9h-24.5L246.3,93.6L246.3,93.6z"/>
	<path class="st0" d="M368.9,30.2v86c0,10.2,2.7,18,8.1,23.1c5.4,5.2,12.9,7.8,22.5,7.8c9.7,0,17.3-2.6,22.7-7.8
		c5.4-5.2,8.1-12.9,8.1-23.1v-86h22.2V116c0,11-2.4,20.4-7.2,28c-4.8,7.7-11.2,13.4-19.3,17.1c-8,3.8-16.9,5.6-26.6,5.6
		c-9.7,0-18.6-1.9-26.5-5.6c-8-3.8-14.3-9.5-19-17.1c-4.7-7.6-7-17-7-28V30.2H368.9z"/>
	<path class="st0" d="M592.1,165.3h-22.2L503.2,64.4v100.8h-22.2V30h22.2l66.7,100.6V30h22.2V165.3z"/>
	<path class="st0" d="M703.1,38.4c10.8,5.5,19.2,13.4,25.1,23.7c5.9,10.3,8.8,22.3,8.8,36.1c0,13.7-3,25.7-8.8,35.8
		c-5.9,10.1-14.3,17.9-25.1,23.2c-10.8,5.4-23.4,8.1-37.8,8.1h-44.1v-135h44.1C679.7,30.2,692.3,32.9,703.1,38.4z M701.7,134.4
		c8.4-8.6,12.6-20.6,12.6-36.2c0-15.7-4.2-27.9-12.6-36.8c-8.4-8.8-20.5-13.2-36.4-13.2h-22v98.9h22
		C681.1,147.2,693.2,143,701.7,134.4z"/>
	<path class="st0" d="M840.4,137.7h-56.6l-9.7,27.6h-23.1L799.4,30h25.7l48.4,135.2h-23.3L840.4,137.7z M834.2,119.6l-22-62.8
		L790,119.6H834.2z"/>
	<path class="st0" d="M916.5,147.4h45.7v17.9h-67.9v-135h22.2V147.4z"/>
</g>
</svg>
