<?xml version="1.0" encoding="utf-8"?>
<!-- Generator: Adobe Illustrator 26.1.0, SVG Export Plug-In . SVG Version: 6.00 Build 0)  -->
<svg version="1.1" id="Layer_1" xmlns="http://www.w3.org/2000/svg" xmlns:xlink="http://www.w3.org/1999/xlink" x="0px" y="0px"
	 viewBox="0 0 200 200" style="enable-background:new 0 0 200 200;" xml:space="preserve">
<style type="text/css">
	.st0{opacity:0.2;fill:#00C0F2;}
	.st1{fill:#0071BB;}
	.st2{fill:#0091D0;}
	.st3{fill:#00C0F2;}
	.st4{fill:#00A8D4;}
	.st5{fill:#FFFFFF;}
</style>
<circle class="st0" cx="102.4" cy="100.4" r="88.6"/>
<g>
	<path class="st1" d="M140.5,134.3c0,0,14.9-39.2,49-28.3l-16.1,35l-17.7-8.3L140.5,134.3z"/>
	<path class="st2" d="M73,136.6c0,0,23.6-79.1,90.9-62.1l-26.8,64.6h-19.3L73,136.6z"/>
	<path class="st3" d="M173.4,138.3c0,0-5.5-32.3-35.8-35l-9.1,33.5L173.4,138.3z"/>
	<path class="st4" d="M157.6,111.2c-11.7,8.9-17.2,23.1-17.2,23.1l15.2-1.5l11.3,5.3l6.4,0.2C173.4,138.3,170.5,121.6,157.6,111.2z"
		/>
	<path class="st1" d="M48.2,100.1c0,0-16.9-3.8-34.2,10.8l24.8,28.2l24.4-2.4L48.2,100.1z"/>
	<path class="st2" d="M67.5,92.2c0,0-19.7-10.2-42.9-5.1l26.8,50l21.3,1.2l7.9-8.7L67.5,92.2z"/>
	<path class="st3" d="M128.5,136.7c0,0,0-79.1-84.2-81.9l26,84.2L128.5,136.7z"/>
	<path class="st4" d="M73,136.6l24.8,1.4l30.7-1.2c0,0,0-29.4-19.1-52.9C83.2,102.3,73,136.6,73,136.6z"/>
	<rect x="5.7" y="132.8" class="st5" width="188.9" height="11.1"/>
	<polygon class="st4" points="49,132.8 58.8,102.1 68.3,132.8 	"/>
</g>
</svg>
