<?xml version="1.0" encoding="utf-8"?>
<!-- Generator: Adobe Illustrator 26.1.0, SVG Export Plug-In . SVG Version: 6.00 Build 0)  -->
<svg version="1.1" id="Layer_1" xmlns="http://www.w3.org/2000/svg" xmlns:xlink="http://www.w3.org/1999/xlink" x="0px" y="0px"
	 viewBox="0 0 507.2 145.6" style="enable-background:new 0 0 507.2 145.6;" xml:space="preserve">
<style type="text/css">
	.st0{fill:url(#SVGID_1_);}
</style>
<linearGradient id="SVGID_1_" gradientUnits="userSpaceOnUse" x1="4.106" y1="72.0295" x2="504.0682" y2="72.0295">
	<stop  offset="0" style="stop-color:#FFD600"/>
	<stop  offset="0.5" style="stop-color:#FF0100"/>
	<stop  offset="1" style="stop-color:#D800B9"/>
</linearGradient>
<path class="st0" d="M29.9,1.6C19.6,5.9,8.4,18,4.8,33.2C0.3,52.4,19.1,60.6,20.6,57.9c1.8-3.1-3.4-4.2-4.4-14.2
	c-1.4-12.9,4.6-27.3,12.2-33.6c1.4-1.2,1.3,0.5,1.3,3.5c0,5.4-0.3,54-0.3,64.1c0,13.7-0.6,18-1.6,22.3s-2.7,7.3-1.4,8.4
	c1.4,1.3,7.4-1.7,10.9-6.6c4.2-5.8,5.6-12.8,5.9-20.3c0.3-9.1,0.3-23.6,0.3-31.9c0-7.6,0.1-29.8-0.1-43.1
	C43.2,3.2,34.1-0.2,29.9,1.6 M393.3,65.8c-0.3,7.1-1.9,12.7-3.9,16.6c-3.8,7.6-11.7,10-15-1c-1.8-6-1.9-15.9-0.6-24.2
	c1.3-8.5,5.1-14.9,11.2-14.3S393.9,51.3,393.3,65.8L393.3,65.8z M290.8,110c-0.1,11.8-1.9,22.2-5.9,25.2c-5.7,4.3-13.3,1.1-11.7-7.6
	c1.4-7.6,8-15.5,17.7-25C290.9,102.7,290.9,104.9,290.8,110L290.8,110z M289.3,65.7c-0.3,6.5-2,13-3.9,16.7c-3.8,7.6-11.7,10-15-1
	c-2.2-7.5-1.7-17.2-0.6-23.3c1.4-7.9,4.9-15.3,11.2-15.3C287.1,42.9,290.2,49.6,289.3,65.7L289.3,65.7z M230,65.6
	c-0.4,6.9-1.7,12.6-3.9,16.8c-3.9,7.6-11.6,10-15-1c-2.4-7.9-1.6-18.6-0.6-24.4c1.5-8.6,5.3-14.7,11.2-14.1
	C227.8,43.5,230.7,51.3,230,65.6L230,65.6z M501.9,73.6c-1.5,0-2.2,1.5-2.7,4.1c-1.9,9-4,11-6.6,11c-2.9,0-5.6-4.4-6.3-13.3
	c-0.5-7-0.4-19.8,0.2-32.6c0.1-2.6-0.6-5.2-7.6-7.8c-3-1.1-7.4-2.7-9.6,2.6c-6.2,15-8.6,26.8-9.2,31.7c0,0.2-0.3,0.3-0.4-0.3
	c-0.4-3.9-1.2-10.9-1.3-25.6c0-2.9-0.6-5.3-3.8-7.3c-2.1-1.3-8.3-3.6-10.6-0.9c-2,2.2-4.2,8.3-6.6,15.4c-1.9,5.8-3.2,9.7-3.2,9.7
	s0-15.7,0-21.6c0-2.2-1.5-3-2-3.1c-2.1-0.6-6.2-1.6-7.9-1.6c-2.2,0-2.7,1.2-2.7,3c0,0.2-0.3,20.6-0.3,34.9c0,0.6,0,1.3,0,2
	c-1.2,6.6-5.1,15.5-9.3,15.5c-4.2,0-6.2-3.7-6.2-20.7c0-9.9,0.3-14.2,0.4-21.4c0.1-4.1,0.2-7.3,0.2-8c0-2.2-3.9-3.3-5.6-3.7
	c-1.8-0.4-3.3-0.6-4.5-0.5c-1.7,0.1-2.9,1.2-2.9,2.8c0,0.8,0,2.4,0,2.4c-2.2-3.5-5.8-5.9-8.1-6.6c-6.4-1.9-13-0.2-18,6.8
	c-4,5.6-6.4,11.9-7.3,21c-0.7,6.6-0.5,13.4,0.8,19c-1.5,6.4-4.2,9-7.3,9c-4.4,0-7.6-7.1-7.2-19.5c0.2-8.1,1.9-13.8,3.6-22.1
	c0.8-3.5,0.1-5.4-1.4-7.1c-1.4-1.6-4.4-2.4-8.8-1.4c-3.1,0.7-7.5,1.5-11.6,2.1c0,0,0.2-1,0.4-2.7c1.1-9-8.7-8.3-11.9-5.4
	c-1.9,1.7-3.1,3.7-3.6,7.4c-0.8,5.8,3.9,8.5,3.9,8.5c-1.5,7.1-5.3,16.3-9.2,23c-2.1,3.6-3.7,6.2-5.8,9.1c0-1.1,0-2.1,0-3.1
	c0-14.9,0.2-26.6,0.2-30.8c0.1-4.1,0.3-7.2,0.2-7.9c0-1.6-1-2.2-2.9-3c-1.7-0.7-3.8-1.2-5.9-1.3c-2.7-0.2-4.3,1.2-4.3,2.9
	c0,0.3,0,2.3,0,2.3c-2.2-3.5-5.8-5.9-8.1-6.6c-6.4-1.9-13-0.2-18,6.8c-4,5.6-6.6,13.4-7.3,20.9c-0.7,7-0.6,12.9,0.4,17.9
	c-1,5-3.9,10.2-7.2,10.2c-4.2,0-6.6-3.7-6.6-20.7c0-9.9,0.3-14.2,0.4-21.4c0.1-4.1,0.2-7.3,0.2-8c0-2.2-3.9-3.3-5.6-3.7
	c-1.9-0.4-3.5-0.6-4.7-0.5c-1.6,0.1-2.8,1.6-2.8,2.7V40c-2.2-3.5-5.8-5.9-8.1-6.6c-6.4-1.9-13-0.2-18,6.8c-3.3,4.6-6,9.6-7.3,20.8
	c-0.4,3.2-0.6,6.3-0.5,9.1c-1.3,8-7.1,17.3-11.9,17.3c-2.8,0-5.4-5.4-5.4-16.9c0-15.3,0.9-37,1.1-39.1c0,0,6-0.1,7.2-0.1
	c3,0,5.7,0,9.7-0.2c2-0.1,3.9-7.3,1.9-8.2c-0.9-0.4-7.5-0.8-10.2-0.8c-2.2,0-8.3-0.5-8.3-0.5s0.5-14.4,0.7-16
	c0.1-1.3-1.5-1.9-2.5-2.3c-2.3-1-4.3-1.4-6.8-1.9c-3.4-0.7-4.9,0-5.2,2.8c-0.4,4.3-0.7,16.9-0.7,16.9c-2.5,0-10.9-0.5-13.4-0.5
	c-2.3,0-4.8,9.9-1.6,10c3.6,0.1,10,0.3,14.2,0.4c0,0-0.2,22.1-0.2,28.9c0,0.7,0,1.4,0,2.1c-2.3,12.1-10.5,18.6-10.5,18.6
	c1.8-8-1.8-14-8.3-19.1c-2.4-1.9-7.1-5.4-12.3-9.3c0,0,3-3,5.7-9c1.9-4.3,2-9.2-2.7-10.2c-7.8-1.8-14.1,3.9-16,10
	c-1.5,4.7-0.7,8.2,2.2,11.8c0.2,0.3,0.4,0.5,0.7,0.8c-1.7,3.4-4.2,7.9-6.2,11.4c-5.7,9.8-9.9,17.5-13.1,17.5
	c-2.6,0-2.5-7.9-2.5-15.2c0-6.3,0.5-15.9,0.8-25.7c0.1-3.3-1.5-5.1-4.2-6.8c-1.7-1-5.2-3-7.3-3c-3.1,0-11.9,0.4-20.3,24.7
	c-1.1,3.1-3.1,8.6-3.1,8.6L67.7,38c0-0.7-0.4-1.3-1.2-1.8c-1.4-0.8-5.2-2.3-8.5-2.3c-1.6,0-2.4,0.7-2.4,2.2l-0.3,45.6
	c0,3.5,0.1,7.5,0.4,9.3c0.3,1.8,0.9,3.2,1.6,4.1c0.7,0.9,1.5,1.5,2.8,1.8c1.2,0.2,7.9,1.1,8.2-1.4c0.4-3,0.4-6.3,3.9-18.6
	C77.6,57.6,84.7,48.3,88.1,45c0.6-0.6,1.2-0.6,1.2,0.3c-0.1,4.2-0.6,14.7-1,23.6c-0.9,23.8,3.4,28.2,9.6,28.2
	c4.7,0,11.4-4.7,18.6-16.6c4.5-7.4,8.8-14.7,11.9-19.9c2.2,2,4.6,4.2,7,6.5c5.7,5.4,7.5,10.5,6.3,15.3c-0.9,3.7-4.5,7.5-10.8,3.8
	c-1.8-1.1-2.6-1.9-4.5-3.1c-1-0.7-2.5-0.8-3.4-0.2c-2.4,1.8-3.7,4-4.5,6.9c-0.8,2.7,2,4.2,4.8,5.4c2.4,1.1,7.7,2.1,11,2.2
	c13,0.4,23.5-6.3,30.7-23.7c1.3,15,6.8,23.5,16.5,23.5c6.4,0,12.9-8.3,15.7-16.5c0.8,3.3,2,6.2,3.6,8.7c7.4,11.7,21.8,9.2,29-0.8
	c2.2-3.1,2.6-4.2,2.6-4.2c1.1,9.4,8.6,12.7,13,12.7c4.9,0,9.9-2.3,13.4-10.2c0.4,0.9,0.9,1.7,1.4,2.5c7.4,11.7,21.8,9.2,29-0.8
	c0.3-0.5,0.6-0.9,0.9-1.3l0.2,6.2c0,0-4.1,3.8-6.7,6.1c-11.1,10.2-19.6,18-20.2,27c-0.8,11.5,8.5,15.8,15.6,16.3
	c7.5,0.6,13.9-3.5,17.9-9.3c3.5-5.1,5.7-16.1,5.6-26.9c-0.1-4.3-0.2-9.9-0.3-15.8c3.9-4.5,8.3-10.3,12.4-17
	c4.4-7.3,9.2-17.2,11.6-24.8c0,0,4.1,0,8.5-0.3c1.4-0.1,1.8,0.2,1.6,1.2c-0.3,1.2-5.6,21.5-0.8,34.9c3.3,9.2,10.7,12.2,15,12.2
	c5.1,0,10-3.9,12.6-9.6c0.3,0.6,0.6,1.3,1,1.8c7.4,11.7,21.7,9.2,29-0.8c1.6-2.2,2.6-4.2,2.6-4.2c1.6,9.7,9.1,12.8,13.5,12.8
	c4.5,0,8.8-1.9,12.3-10.1c0.1,3.6,0.4,6.6,0.7,7.5c0.2,0.6,1.5,1.3,2.4,1.6c4.1,1.5,8.4,0.8,9.9,0.5c1.1-0.2,1.9-1.1,2-3.3
	c0.3-5.9,0.1-15.8,1.9-23.1c3-12.3,5.8-17.1,7.1-19.5c0.7-1.3,1.6-1.5,1.6-0.1c0.1,2.8,0.2,11.2,1.4,22.4c0.9,8.2,2,13.1,2.9,14.7
	c2.5,4.4,5.6,4.6,8.1,4.6c1.6,0,4.9-0.4,4.6-3.2c-0.1-1.4,0.1-9.8,3.1-22c1.9-7.9,5.1-15.1,6.3-17.7c0.4-1,0.6-0.2,0.6-0.1
	c-0.2,5.5-0.8,23.3,1.4,33.1c3,13.2,11.7,14.7,14.8,14.7c6.5,0,11.8-4.9,13.6-17.9C504.4,76.1,503.8,73.6,501.9,73.6"/>
</svg>
