<?xml version="1.0" encoding="utf-8"?>
<!-- Generator: Adobe Illustrator 22.0.1, SVG Export Plug-In . SVG Version: 6.00 Build 0)  -->
<svg version="1.1" id="Layer_1" xmlns="http://www.w3.org/2000/svg" xmlns:xlink="http://www.w3.org/1999/xlink" x="0px" y="0px"
	 viewBox="0 0 60 60" style="enable-background:new 0 0 60 60;" xml:space="preserve">
<style type="text/css">
	.st0{fill:#0A57F4;}
</style>
<g>
	<g>
		<path id="SVGID_1_" class="st0" d="M52.9,29h-4.1c1.7-3.8,1.5-6.9,0.9-9c-1.1-3.7-4.8-7.8-10.4-7.8c-1.5,0-2.9,0.3-4.5,0.8
			c-2.6,1-4.4,2-5.2,2.6C28.9,15,27.2,14,24.5,13c-1.5-0.5-3-0.8-4.5-0.8c-5.5,0-9.2,4.1-10.4,7.8c-0.6,2.2-0.9,5.6,1.3,9.9H6
			c-0.4,0-0.7,0.3-0.7,0.7c0,0.4,0.3,0.7,0.7,0.7h5.8c0.2,0.4,0.5,0.8,0.8,1.2c4.8,6.9,15.2,14.3,17.1,14.8v0c0,0,0,0,0.1,0
			c0,0,0.1,0,0.1,0v0c1.6-0.8,11.6-7.2,16.8-14.8c0.5-0.7,0.9-1.4,1.3-2.1H53c0.4,0,0.7-0.3,0.7-0.7C53.7,29.3,53.3,29,52.9,29
			L52.9,29z M45.5,31.7c-4.9,7.1-13.8,12.8-15.8,14c-2-1.2-10.9-7-15.8-14c-0.1-0.1-0.2-0.3-0.3-0.4h6.8c0.3,0,0.6-0.1,0.7-0.4
			l3.1-6L29,37.2c0.1,0.3,0.4,0.5,0.7,0.5c0,0,0,0,0,0c0.3,0,0.6-0.2,0.7-0.5l4.2-14.4l2.3,7.3c0.1,0.3,0.3,0.5,0.6,0.5
			c0.3,0,0.6-0.1,0.7-0.3l1.8-2.6l1.5,2.6c0.1,0.2,0.4,0.4,0.6,0.4h4.1C46.1,30.9,45.8,31.3,45.5,31.7L45.5,31.7z M47.2,29h-4.5
			l-1.9-3.2c-0.1-0.2-0.4-0.4-0.6-0.4c-0.3,0-0.5,0.1-0.6,0.3l-1.6,2.3l-2.5-8.2c-0.1-0.3-0.4-0.5-0.7-0.5c-0.3,0-0.6,0.2-0.7,0.5
			l-4.3,14.7L25,22.8c-0.1-0.3-0.4-0.5-0.6-0.5c-0.3,0-0.6,0.1-0.7,0.4L20,29.8h-7.3c-1.8-3.3-2.3-6.5-1.5-9.4
			c1-3.2,4.1-6.7,8.9-6.7c1.3,0,2.6,0.3,4,0.7c3.4,1.2,5.2,2.7,5.2,2.7c0.3,0.2,0.6,0.2,0.9,0c0,0,1.8-1.4,5.2-2.7
			c1.3-0.5,2.7-0.7,4-0.7c4.7,0,8,3.5,8.9,6.7C49.1,23.1,48.6,26,47.2,29L47.2,29z"/>
	</g>
</g>
</svg>
