<?xml version="1.0" encoding="utf-8"?>
<!-- Generator: Adobe Illustrator 22.0.1, SVG Export Plug-In . SVG Version: 6.00 Build 0)  -->
<svg version="1.1" id="Layer_1" xmlns="http://www.w3.org/2000/svg" xmlns:xlink="http://www.w3.org/1999/xlink" x="0px" y="0px"
	 viewBox="0 0 60 60" style="enable-background:new 0 0 60 60;" xml:space="preserve">
<style type="text/css">
	.st0{fill:#0A57F4;}
</style>
<g>
	<g>
		<path id="SVGID_7_" class="st0" d="M50.2,40.1c0,2.7-2.2,4.8-4.8,4.8c-2.7,0-4.8-2.2-4.8-4.8s2.2-4.8,4.8-4.8c0.3,0,0.7,0,1,0.1
			c0.3-1.2,0.4-2.4,0.4-3.5c0-5.8-2.9-11.1-7.9-14.1c-0.3-0.2-0.4-0.6-0.2-1c0.2-0.3,0.6-0.4,0.9-0.2c5.4,3.3,8.5,9,8.5,15.3
			c0,1.4-0.2,2.7-0.5,4C49.2,36.7,50.2,38.3,50.2,40.1L50.2,40.1z M45.4,36.7c-1.9,0-3.4,1.5-3.4,3.4c0,1.9,1.5,3.4,3.4,3.4
			c1.9,0,3.4-1.5,3.4-3.4C48.9,38.2,47.3,36.7,45.4,36.7L45.4,36.7z M37.1,48.4c-2.2,0.9-4.5,1.4-6.9,1.4c-4.8,0-9.5-2-12.8-5.4
			c-0.7,0.4-1.5,0.6-2.3,0.6c-2.7,0-4.8-2.2-4.8-4.8s2.2-4.8,4.8-4.8s4.8,2.2,4.8,4.8c0,1.3-0.5,2.5-1.4,3.4
			c3.1,3.1,7.3,4.9,11.7,4.9c2.2,0,4.3-0.4,6.3-1.3c0.4-0.1,0.8,0,0.9,0.4C37.6,47.9,37.5,48.3,37.1,48.4L37.1,48.4z M18.5,40.1
			c0-1.9-1.5-3.4-3.4-3.4c-1.9,0-3.4,1.5-3.4,3.4c0,1.9,1.5,3.4,3.4,3.4C17,43.6,18.5,42,18.5,40.1L18.5,40.1z M30.2,19.4
			c-2.2,0-4-1.5-4.6-3.5c-6.6,1.9-11.4,7.7-11.9,14.7c0,0.4-0.3,0.6-0.7,0.6c0,0,0,0-0.1,0c-0.4,0-0.7-0.4-0.6-0.7
			c0.5-7.6,5.8-14,13.1-16c0-2.7,2.2-4.8,4.8-4.8c2.7,0,4.8,2.2,4.8,4.8C35.1,17.3,32.9,19.4,30.2,19.4L30.2,19.4z M30.2,11.2
			c-1.9,0-3.4,1.5-3.4,3.4c0,1.9,1.5,3.4,3.4,3.4c1.9,0,3.4-1.5,3.4-3.4C33.7,12.7,32.1,11.2,30.2,11.2L30.2,11.2z"/>
	</g>
</g>
</svg>
