<?xml version="1.0" encoding="utf-8"?>
<!-- Generator: Adobe Illustrator 22.0.1, SVG Export Plug-In . SVG Version: 6.00 Build 0)  -->
<svg version="1.1" id="Layer_1" xmlns="http://www.w3.org/2000/svg" xmlns:xlink="http://www.w3.org/1999/xlink" x="0px" y="0px"
	 viewBox="0 0 60 60" style="enable-background:new 0 0 60 60;" xml:space="preserve">
<style type="text/css">
	.st0{fill:#0A57F4;}
</style>
<g>
	<g>
		<path id="SVGID_15_" class="st0" d="M10,50V29.5h6.1l10.7-8.8c-0.7-0.7-1.1-1.6-1.1-2.7H27c0,0.7,0.3,1.4,0.8,1.9l1.7-1.4l1.7,1.4
			c0.5-0.5,0.8-1.1,0.8-1.9c0-1.4-1.1-2.6-2.5-2.6h-0.6v-2.6h-4.1l-1.4-2.2l1-0.7l1.1,1.6h8.1l1.1-1.6l1,0.7l-1.4,2.2h-4.1v1.3
			c1.8,0.3,3.1,1.9,3.1,3.8c0,1-0.4,2-1.1,2.7l10.7,8.8H49V50L10,50L10,50z M29.5,20.1L29,20.5c0.2,0,0.3,0,0.5,0c0.2,0,0.3,0,0.5,0
			L29.5,20.1L29.5,20.1z M31.1,21.5c-0.5,0.2-1.1,0.4-1.6,0.4c-0.6,0-1.1-0.1-1.6-0.4l-9.8,8.1h22.9L31.1,21.5L31.1,21.5z
			 M47.7,30.8H11.3v17.9h36.5V30.8L47.7,30.8z M28.9,45.5V34h1.3v11.5H28.9L28.9,45.5z M22.6,45.5V34h1.3v11.5H22.6L22.6,45.5z
			 M16.3,45.5V34h1.3v11.5H16.3L16.3,45.5z M35.2,45.5V34h1.3v11.5H35.2L35.2,45.5z M41.4,45.5V34h1.3v11.5H41.4L41.4,45.5z"/>
	</g>
</g>
</svg>
