<?xml version="1.0" encoding="utf-8"?>
<!-- Generator: Adobe Illustrator 22.0.1, SVG Export Plug-In . SVG Version: 6.00 Build 0)  -->
<svg version="1.1" id="Layer_1" xmlns="http://www.w3.org/2000/svg" xmlns:xlink="http://www.w3.org/1999/xlink" x="0px" y="0px"
	 viewBox="0 0 60 60" style="enable-background:new 0 0 60 60;" xml:space="preserve">
<style type="text/css">
	.st0{fill:#0A57F4;}
</style>
<g>
	<g>
		<path id="SVGID_3_" class="st0" d="M38.8,46.6l-0.7,2.9C38,49.8,37.7,50,37.4,50c-0.1,0-0.1,0-0.2,0c-0.4-0.1-0.6-0.5-0.5-0.9
			l0.7-2.9c0.1-0.4,0.5-0.6,0.9-0.5C38.6,45.8,38.9,46.2,38.8,46.6L38.8,46.6z M37.6,28.1l-7.8,3.2c-0.1,0-0.2,0.1-0.3,0.1
			s-0.2,0-0.3-0.1L8.8,22.8c-0.3-0.1-0.4-0.4-0.4-0.7v-0.7c0-0.4,0.3-0.7,0.7-0.7c0.4,0,0.7,0.3,0.7,0.7v0.2l19.8,8.3l7.5-3.1
			c0.4-0.1,0.8,0,0.9,0.4C38.2,27.6,38,28,37.6,28.1L37.6,28.1z M37.7,39.7c-1.6,0.8-4.3,1.7-8.1,1.7c-11,0-14-7.3-14.1-7.6
			c0-0.1-0.1-0.2-0.1-0.3v-5c0-0.4,0.3-0.7,0.7-0.7c0.4,0,0.7,0.3,0.7,0.7v4.8c0.4,0.9,3.2,6.3,12,6.5v-6.4c0-0.4,0.3-0.7,0.7-0.7
			c0.4,0,0.7,0.3,0.7,0.7V40c3.2-0.1,5.4-0.9,6.8-1.6c0.4-0.2,0.8,0,0.9,0.3C38.2,39.1,38,39.5,37.7,39.7L37.7,39.7z M40.2,50
			c-0.4,0-0.7-0.3-0.7-0.7v-2.1c0-0.4,0.3-0.7,0.7-0.7c0.4,0,0.7,0.3,0.7,0.7v2.1C40.9,49.7,40.6,50,40.2,50L40.2,50z M50.1,20.7
			c0.4,0,0.7,0.3,0.7,0.7v0.7c0,0.3-0.2,0.5-0.4,0.7l-9.5,3.9v8.9c0.9-0.9,1.3-1.9,1.4-2.2v-4.9c0-0.4,0.3-0.7,0.7-0.7
			s0.7,0.3,0.7,0.7v5c0,0.1,0,0.2,0,0.2c0,0.1-0.8,2.2-2.8,3.7v4.1c0.8,0.3,1.4,1.1,1.4,2c0,1.2-1,2.1-2.1,2.1c-1.2,0-2.1-1-2.1-2.1
			c0-0.9,0.6-1.7,1.4-2V26.3v0V24l-8.1-3c-0.5,0.3-1.1,0.5-1.8,0.5c-1.6,0-2.8-0.9-2.8-2.1s1.2-2.1,2.8-2.1c1.6,0,2.8,0.9,2.8,2.1
			c0,0.2,0,0.3-0.1,0.5l7.8,2.9l8.1-3.4l-18.7-7.8l-18.7,7.8l18.7,7.8l7.1-3c0.4-0.2,0.8,0,0.9,0.4c0.1,0.4,0,0.8-0.4,0.9l-7.4,3.1
			c-0.1,0-0.2,0.1-0.3,0.1c-0.1,0-0.2,0-0.3-0.1L8.8,20c-0.3-0.1-0.4-0.4-0.4-0.7s0.2-0.5,0.4-0.7l20.5-8.6c0.2-0.1,0.4-0.1,0.5,0
			l20.5,8.6c0.3,0.1,0.4,0.4,0.4,0.7s-0.2,0.5-0.4,0.7l-9.5,4v1.3l8.5-3.5v-0.2C49.4,21,49.7,20.7,50.1,20.7L50.1,20.7z M29.6,18.6
			c-0.9,0-1.4,0.4-1.4,0.7c0,0.3,0.6,0.7,1.4,0.7c0.9,0,1.4-0.4,1.4-0.7C31,19,30.5,18.6,29.6,18.6L29.6,18.6z M40.2,42.9
			c-0.4,0-0.7,0.3-0.7,0.7c0,0.4,0.3,0.7,0.7,0.7c0.4,0,0.7-0.3,0.7-0.7C40.9,43.2,40.6,42.9,40.2,42.9L40.2,42.9z M43.2,50
			c-0.1,0-0.1,0-0.2,0c-0.3,0-0.6-0.2-0.7-0.5l-0.7-2.9c-0.1-0.4,0.1-0.8,0.5-0.9c0.4-0.1,0.8,0.1,0.9,0.5l0.7,2.9
			C43.8,49.5,43.6,49.9,43.2,50L43.2,50z"/>
	</g>
</g>
</svg>
