<?xml version="1.0" encoding="utf-8"?>
<!-- Generator: Adobe Illustrator 26.1.0, SVG Export Plug-In . SVG Version: 6.00 Build 0)  -->
<svg version="1.1" id="Layer_1" xmlns="http://www.w3.org/2000/svg" xmlns:xlink="http://www.w3.org/1999/xlink" x="0px" y="0px" width="35.8"
	 viewBox="0 0 35.8 37.6" style="enable-background:new 0 0 35.8 37.6;" xml:space="preserve">
<style type="text/css">
	.st0{fill:url(#SVGID_1_);}
	.st1{fill:#FFFFFF;}
</style>
<linearGradient id="SVGID_1_" gradientUnits="userSpaceOnUse" x1="5.7588" y1="7.4883" x2="29.2535" y2="30.983">
	<stop  offset="0" style="stop-color:#007BB8"/>
	<stop  offset="1" style="stop-color:#0044E9"/>
</linearGradient>
<path class="st0" d="M33,14.2c1.2-2-1.2-4.8-3.4-3.4c0,0,0,0-0.1,0c0.1-0.1,0.2-0.2,0.4-0.4c2-1.9-0.6-5.4-3-3.9
	c-1.5,0.9-3,1.9-4.5,2.9C23.7,8.3,25,7.1,26.2,6c2.1-1.9-0.6-5.2-3-3.9c-0.6,0.3-1.1,0.6-1.7,1c0.4-1.8-1.6-3.5-3.7-2.6
	C12.4,3,7.4,6.3,2.9,10.3C1,12.1,3,14.7,5,14.5c-1.5,1.8-2.9,3.6-4.3,5.5c-1.4,1.9,0.9,4.1,2.8,3.6c-0.4,0.6-0.9,1.1-1.3,1.7
	c-0.7,1-0.3,2.5,0.6,3.2c1,0.8,2.3,0.6,3.2-0.2c0.3-0.2,0.5-0.5,0.8-0.7c-0.4,0.5-0.9,1-1.3,1.6c-0.9,1-1,2.5,0,3.5
	c0.8,0.8,2.1,0.9,3.1,0.3c0.1,0.6,0.5,1.2,0.9,1.5c1,0.7,2,0.6,2.9,0c-0.1,1.8,1.9,3.7,3.7,2.4c1-0.8,2-1.5,3-2.3
	c0.7,1.3,2.5,2,3.9,0.7c2.3-2,4.7-3.9,7.2-5.5c1.3-0.8,1.4-2.3,0.8-3.4l2.5-2.8c0.8-0.9,1-2.3,0.2-3.2c-0.1-0.2-0.3-0.4-0.5-0.5
	c0.5-0.5,1.1-1,1.6-1.5C36.6,16.8,35,14.1,33,14.2z"/>
<path class="st1" d="M11.9,16h2.8v9h-2.8V16z M13.3,11.5c0.9,0,1.6,0.7,1.6,1.6c0,0.9-0.7,1.6-1.6,1.6c-0.9,0-1.6-0.7-1.6-1.6
	C11.7,12.2,12.4,11.5,13.3,11.5"/>
<path class="st1" d="M16.5,16h2.7v1.2h0c0.4-0.7,1.3-1.5,2.6-1.5c2.8,0,3.4,1.9,3.4,4.3V25h-2.8v-4.4c0-1,0-2.4-1.5-2.4
	c-1.5,0-1.7,1.1-1.7,2.3V25h-2.8V16z"/>
</svg>
