<?xml version="1.0" encoding="utf-8"?>
<!-- Generator: Adobe Illustrator 26.1.0, SVG Export Plug-In . SVG Version: 6.00 Build 0)  -->
<svg version="1.1" id="Layer_1" xmlns="http://www.w3.org/2000/svg" xmlns:xlink="http://www.w3.org/1999/xlink" x="0px" y="0px"
	 viewBox="0 0 200 200" style="enable-background:new 0 0 200 200;" xml:space="preserve">
<style type="text/css">
	.st0{opacity:0.2;fill:#F89A1C;}
	.st1{fill:#FFC10E;}
	.st2{fill:#F89A1C;}
</style>
<circle class="st0" cx="102.4" cy="100.4" r="88.6"/>
<g>
	<rect x="98.1" y="4.6" class="st1" width="3.9" height="26.8"/>
	<path class="st2" d="M100.1,154.5v-19.1H87l6.5-26.6h6.5V94.7h-4.4l4.4-35.4V17.9l-10,8.3c0,0-10.5,117.2-49,165.1h29.5
		C70.6,191.3,78.2,154.5,100.1,154.5z"/>
	<path class="st2" d="M100.1,154.5v-19.1h13l-6.5-26.6h-6.5V94.7h4.4l-4.4-35.4V17.9l10,8.3c0,0,10.5,117.2,49,165.1h-29.5
		C129.5,191.3,121.9,154.5,100.1,154.5z"/>
	<rect x="57.7" y="134.3" class="st1" width="88.6" height="6.1"/>
	<rect x="71.5" y="92.8" class="st1" width="60.9" height="5.5"/>
	<rect x="82.3" y="38.8" class="st1" width="39.3" height="5.5"/>
	<rect x="38.9" y="188.5" class="st1" width="34.3" height="5.7"/>
	<rect x="127.1" y="188.5" class="st1" width="34.3" height="5.7"/>
</g>
</svg>
