<?xml version="1.0" encoding="utf-8"?>
<!-- Generator: Adobe Illustrator 22.0.1, SVG Export Plug-In . SVG Version: 6.00 Build 0)  -->
<svg version="1.1" id="Capa_1" xmlns="http://www.w3.org/2000/svg" xmlns:xlink="http://www.w3.org/1999/xlink" x="0px" y="0px"
	 viewBox="0 0 60 60" style="enable-background:new 0 0 60 60;" xml:space="preserve">
<style type="text/css">
	.st0{fill:#0A57F4;}
</style>
<g>
	<g>
		<path class="st0" d="M48,29.3c-0.4-9.4-7.9-17-17.3-17.3v-2h-1.3v2c-9.4,0.4-17,7.9-17.3,17.3h-2v1.3h2c0.4,9.4,7.9,17,17.3,17.3
			v2h1.3v-2c9.4-0.4,17-7.9,17.3-17.3h2v-1.3H48z M46.6,30.7c-0.4,8.7-7.3,15.6-16,16v-2h-1.3v2c-8.7-0.4-15.6-7.3-16-16h2v-1.3h-2
			c0.4-8.7,7.3-15.6,16-16v2h1.3v-2c8.7,0.4,15.6,7.3,16,16h-2v1.3H46.6z"/>
	</g>
</g>
<g>
	<g>
		<path class="st0" d="M33.1,24.2c-0.1-0.1-0.2-0.2-0.4-0.2l-1.5-0.2l-0.7-1.4c-0.2-0.3-0.6-0.5-0.9-0.3c-0.1,0.1-0.3,0.2-0.3,0.3
			l-0.7,1.4L27.2,24c-0.4,0.1-0.6,0.4-0.6,0.8c0,0.1,0.1,0.3,0.2,0.4l1.1,1.1l-0.3,1.6c-0.1,0.4,0.2,0.7,0.6,0.8
			c0.1,0,0.3,0,0.4-0.1l1.3-0.7l1.3,0.7c0.3,0.2,0.7,0.1,0.9-0.3c0.1-0.1,0.1-0.3,0.1-0.4L32,26.3l1.1-1.1
			C33.4,24.9,33.4,24.5,33.1,24.2z M30.9,25.6c-0.1,0.2-0.2,0.4-0.2,0.6l0.1,0.6l-0.4-0.2c-0.2-0.1-0.4-0.1-0.6,0l-0.4,0.2l0.1-0.6
			c0-0.2,0-0.4-0.2-0.6l-0.4-0.4l0.6-0.1c0.2,0,0.4-0.2,0.5-0.4l0.2-0.5l0.2,0.5c0.1,0.2,0.3,0.3,0.5,0.4l0.6,0.1L30.9,25.6z"/>
	</g>
</g>
<g>
	<g>
		<path class="st0" d="M42,20.7C42,20.7,42,20.7,42,20.7h-4v-2c0-0.4-0.3-0.7-0.7-0.7c0,0,0,0,0,0H22.7c-0.4,0-0.7,0.3-0.7,0.7
			c0,0,0,0,0,0v2h-4c-0.4,0-0.7,0.3-0.7,0.7c0,0,0,0,0,0V24c0,2.7,2,5,4.7,5.3c0.3,3.4,3.2,6,6.6,6h0.7v4h-2c-1.8,0-3.3,1.5-3.3,3.3
			c0,0.4,0.3,0.7,0.7,0.7c0,0,0,0,0,0h10.7c0.4,0,0.7-0.3,0.7-0.7c0,0,0,0,0,0c0-1.8-1.5-3.3-3.3-3.3h-2v-4h0.7c3.4,0,6.3-2.6,6.6-6
			c2.7-0.3,4.7-2.6,4.7-5.3v-2.7C42.7,21,42.4,20.7,42,20.7z M22,27.9c-1.9-0.3-3.3-2-3.3-3.9v-2H22V27.9z M32.7,40.7
			c0.8,0,1.6,0.5,1.9,1.3h-9.1c0.3-0.8,1-1.3,1.9-1.3H32.7z M36.7,28.7c0,2.9-2.4,5.3-5.3,5.3h-2.7c-2.9,0-5.3-2.4-5.3-5.3v-9.3
			h13.3V28.7z M41.3,24c0,1.9-1.4,3.6-3.3,3.9V22h3.3V24z"/>
	</g>
</g>
</svg>
