<?xml version="1.0" encoding="utf-8"?>
<!-- Generator: Adobe Illustrator 26.1.0, SVG Export Plug-In . SVG Version: 6.00 Build 0)  -->
<svg version="1.1" id="Layer_1" xmlns="http://www.w3.org/2000/svg" xmlns:xlink="http://www.w3.org/1999/xlink" x="0px" y="0px" width="35.8"
	 viewBox="0 0 35.8 37.6" style="enable-background:new 0 0 35.8 37.6;" xml:space="preserve">
<style type="text/css">
	.st0{fill:url(#SVGID_1_);}
	.st1{fill:#FFFFFF;}
</style>
<linearGradient id="SVGID_1_" gradientUnits="userSpaceOnUse" x1="5.7623" y1="7.4388" x2="29.0596" y2="30.7361">
	<stop  offset="0" style="stop-color:#00CCFF"/>
	<stop  offset="1" style="stop-color:#0080FF"/>
</linearGradient>
<path class="st0" d="M32.8,14.1c1.2-1.9-1.2-4.8-3.4-3.4c0,0,0,0-0.1,0c0.1-0.1,0.2-0.2,0.4-0.4c2-1.9-0.6-5.3-3-3.8
	c-1.5,0.9-3,1.9-4.4,2.8C23.6,8.3,24.8,7.1,26,6c2.1-1.9-0.6-5.1-3-3.8c-0.6,0.3-1.1,0.6-1.7,1c0.4-1.8-1.6-3.5-3.6-2.6
	C12.3,3,7.4,6.3,2.9,10.3C1,12,3,14.6,5,14.4c-1.5,1.8-2.9,3.6-4.3,5.5c-1.4,1.9,0.9,4.1,2.8,3.6c-0.4,0.6-0.9,1.1-1.3,1.7
	c-0.7,1-0.3,2.5,0.6,3.2c1,0.8,2.3,0.6,3.2-0.2c0.3-0.2,0.5-0.5,0.8-0.7c-0.4,0.5-0.9,1-1.3,1.5c-0.9,1-1,2.5,0,3.5
	c0.8,0.8,2.1,0.9,3,0.3c0.1,0.6,0.5,1.2,0.9,1.5c0.9,0.7,2,0.6,2.9,0c-0.1,1.8,1.9,3.6,3.6,2.3c1-0.8,2-1.5,3-2.3
	c0.7,1.3,2.4,2,3.9,0.7c2.2-2,4.6-3.8,7.2-5.5c1.3-0.8,1.4-2.3,0.8-3.3l2.5-2.7c0.8-0.9,1-2.2,0.2-3.2c-0.1-0.2-0.3-0.3-0.5-0.5
	c0.5-0.5,1.1-1,1.6-1.5C36.4,16.7,34.8,14,32.8,14.1z"/>
<path class="st1" d="M25.8,13.7c-0.5,0.2-1,0.4-1.6,0.5c0.3,0,0.6-0.5,0.8-0.7c0.2-0.3,0.4-0.6,0.5-1c0,0,0-0.1,0-0.1
	c0,0-0.1,0-0.1,0c-0.6,0.3-1.2,0.6-1.9,0.7c-0.1,0-0.1,0-0.1,0c-0.1-0.1-0.1-0.1-0.2-0.2c-0.3-0.2-0.6-0.4-0.9-0.6
	c-0.4-0.2-0.9-0.3-1.4-0.2c-0.5,0-0.9,0.2-1.3,0.4c-0.4,0.2-0.8,0.5-1.1,0.9c-0.3,0.4-0.5,0.8-0.6,1.3c-0.1,0.4-0.1,0.9,0,1.3
	c0,0.1,0,0.1-0.1,0.1c-2.6-0.4-4.7-1.3-6.4-3.3c-0.1-0.1-0.1-0.1-0.2,0c-0.8,1.1-0.4,3,0.6,3.9c0.1,0.1,0.3,0.2,0.4,0.3
	c-0.1,0-0.7-0.1-1.2-0.3c-0.1,0-0.1,0-0.1,0.1c0,0.1,0,0.2,0,0.4c0.1,1.2,0.9,2.2,2,2.6c0.1,0.1,0.3,0.1,0.4,0.1
	C13,20,12.8,20,12.1,20c-0.1,0-0.1,0-0.1,0.1c0.5,1.5,1.7,1.9,2.6,2.1c0.1,0,0.2,0,0.3,0c0,0,0,0,0,0c-0.3,0.4-1.3,0.8-1.7,0.9
	c-0.8,0.3-1.8,0.4-2.7,0.3c-0.1,0-0.2,0-0.2,0c0,0,0,0.1,0,0.1c0.2,0.1,0.4,0.2,0.6,0.3c0.6,0.3,1.2,0.5,1.8,0.7
	c3.2,0.9,6.8,0.2,9.2-2.1c1.9-1.9,2.5-4.4,2.5-7c0-0.1,0.1-0.2,0.2-0.2c0.5-0.4,0.9-0.8,1.2-1.3C25.9,13.9,25.9,13.8,25.8,13.7
	C25.9,13.7,25.9,13.7,25.8,13.7C25.9,13.7,25.9,13.7,25.8,13.7z"/>
</svg>
