<?xml version="1.0" encoding="utf-8"?>
<!-- Generator: Adobe Illustrator 26.1.0, SVG Export Plug-In . SVG Version: 6.00 Build 0)  -->
<svg version="1.1" id="Layer_1" xmlns="http://www.w3.org/2000/svg" xmlns:xlink="http://www.w3.org/1999/xlink" x="0px" y="0px" width="35.8"
	 viewBox="0 0 35.8 37.6" style="enable-background:new 0 0 35.8 37.6;" xml:space="preserve">
<style type="text/css">
	.st0{fill:#FFFFFF;}
	.st1{fill:url(#SVGID_1_);}
	.st2{fill-rule:evenodd;clip-rule:evenodd;fill:#FFFFFF;}
</style>
<path class="st0" d="M19.3,30.9v-9.2h3.1L23,18h-3.6v-2.5c0-1,0.5-2.1,2.1-2.1h1.7v-3.2c0,0-1.5-0.3-2.9-0.3c-3,0-5,1.8-5,5.1v3H12
	v3.8h3.3V31h4V30.9z"/>
<linearGradient id="SVGID_1_" gradientUnits="userSpaceOnUse" x1="5.88" y1="7.3031" x2="29.2878" y2="30.7109">
	<stop  offset="0" style="stop-color:#00FB73"/>
	<stop  offset="1" style="stop-color:#00B25B"/>
</linearGradient>
<path class="st1" d="M33.1,14c1.2-1.9-1.2-4.8-3.4-3.4c0,0,0,0-0.1,0c0.1-0.1,0.2-0.2,0.4-0.4c2-1.9-0.6-5.3-3-3.9
	c-1.5,0.9-3,1.9-4.4,2.9C23.8,8.1,25,7,26.3,5.8c2.1-1.9-0.6-5.1-3-3.9c-0.6,0.3-1.1,0.6-1.7,1c0.4-1.8-1.6-3.5-3.7-2.6
	C12.5,2.8,7.5,6.1,3.1,10.1c-1.9,1.7,0,4.4,2.1,4.1c-1.5,1.8-2.9,3.6-4.3,5.5c-1.4,1.9,0.9,4.1,2.8,3.6c-0.4,0.6-0.9,1.1-1.3,1.7
	c-0.7,1-0.3,2.5,0.6,3.2C4,29,5.3,28.9,6.3,28c0.3-0.2,0.5-0.5,0.8-0.7c-0.4,0.5-0.9,1-1.3,1.5c-0.9,1-1,2.5,0,3.5
	c0.8,0.8,2.1,0.9,3.1,0.3c0.1,0.6,0.5,1.2,0.9,1.5c1,0.7,2,0.6,2.9,0c-0.1,1.8,1.9,3.7,3.7,2.4c1-0.8,2-1.5,3-2.3
	c0.7,1.3,2.4,2,3.9,0.7c2.2-2,4.6-3.9,7.2-5.5c1.3-0.8,1.4-2.3,0.8-3.3l2.5-2.7c0.8-0.9,1-2.2,0.2-3.2c-0.1-0.2-0.3-0.3-0.5-0.5
	c0.5-0.5,1.1-1,1.6-1.5C36.7,16.6,35,13.9,33.1,14z"/>
<path class="st0" d="M10.3,26.6l1.2-4.5c-0.7-1.2-1-2.6-1-4c0-4.6,3.7-8.3,8.3-8.3c4.6,0,8.3,3.7,8.3,8.3c0,4.6-3.7,8.3-8.3,8.3
	c-1.4,0-2.7-0.3-3.9-1L10.3,26.6z M15,23.7l0.3,0.2c1,0.6,2.2,0.9,3.4,0.9c3.7,0,6.7-3,6.7-6.7s-3-6.7-6.7-6.7c-3.7,0-6.7,3-6.7,6.7
	c0,1.2,0.3,2.4,1,3.5l0.2,0.3l-0.7,2.5L15,23.7z"/>
<path class="st2" d="M21.8,19.3c-0.3-0.2-0.8-0.4-1.2-0.3c-0.3,0.1-0.5,0.6-0.7,0.9c-0.1,0.1-0.2,0.1-0.4,0.1
	c-1.2-0.5-2-1.2-2.7-2.3c-0.1-0.2-0.1-0.3,0-0.4c0.2-0.2,0.4-0.5,0.5-0.8c0.1-0.3-0.1-0.7-0.2-0.9c-0.2-0.3-0.3-0.8-0.7-1
	c-0.3-0.2-0.7-0.1-1,0.2c-0.5,0.4-0.7,1-0.7,1.7c0,0.2,0,0.4,0.1,0.5c0.1,0.4,0.3,0.8,0.5,1.2c0.2,0.3,0.3,0.5,0.5,0.8
	c0.6,0.8,1.4,1.6,2.3,2.1c0.4,0.3,0.9,0.5,1.4,0.7c0.6,0.2,1.1,0.4,1.7,0.3c0.6-0.1,1.2-0.5,1.5-1.1c0.1-0.2,0.1-0.4,0.1-0.6
	C22.6,19.7,22.1,19.4,21.8,19.3z"/>
</svg>
