<?xml version="1.0" encoding="utf-8"?>
<!-- Generator: Adobe Illustrator 26.1.0, SVG Export Plug-In . SVG Version: 6.00 Build 0)  -->
<svg version="1.1" id="Layer_1" xmlns="http://www.w3.org/2000/svg" xmlns:xlink="http://www.w3.org/1999/xlink" x="0px" y="0px"
	 viewBox="0 0 507.2 134.8" style="enable-background:new 0 0 507.2 134.8;" xml:space="preserve">
<style type="text/css">
	.st0{fill:#0067FF;}
</style>
<g>
	<path class="st0" d="M6,18.8c15.5,0,31.1-0.1,46.6,0.1c5.3,0.1,10.5,1.2,15.3,3.6c4.8,2.3,7.8,6.1,9,11.2c1.1,4.4,1.4,8.9,0.2,13.4
		c-1.5,5.6-5.3,9.2-10,12c-0.5,0.3-1,0.5-1.5,0.8c2,0.9,3.8,1.6,5.5,2.5c5.8,3.2,9,8.4,10.3,14.7c1.2,5.6,0.8,11.1-1.5,16.4
		c-2,4.7-5.4,8.2-9.9,10.7c-6.2,3.4-13,4.8-20,4.9c-11.8,0.1-23.5,0.1-35.3,0.1c-2.9,0-5.9,0-8.8,0C6,79,6,48.9,6,18.8z M26.1,94.1
		c0.6,0,1.1,0,1.5,0c6.3,0,12.6,0,18.9,0c2.1,0,4.3-0.2,6.3-0.6c3.8-0.7,6.8-2.8,8.3-6.5c1.2-2.8,1.2-5.8,0.6-8.8
		c-0.9-4.1-3.2-7.1-7.4-8.2c-2.2-0.6-4.6-1-6.9-1c-6.8-0.1-13.5,0-20.3,0c-0.3,0-0.7,0.1-1,0.1C26.1,77.3,26.1,85.6,26.1,94.1z
		 M26,55.5c0.4,0,0.6,0,0.9,0c5.8,0,11.6,0,17.4,0c2,0,4.1-0.1,6.1-0.5c3.6-0.8,6.7-2.5,7.5-6.5c0.4-2.1,0.5-4.3,0.3-6.4
		c-0.3-3.1-2.1-5.3-5-6.5c-2.1-0.9-4.2-1.3-6.4-1.3c-6.6,0-13.1,0-19.7,0c-0.3,0-0.7,0.1-1,0.1c0,0.3,0,0.5,0,0.7
		C26,41.8,26,48.5,26,55.5z"/>
	<path class="st0" d="M506,81c-0.5,0.1-1.1,0.2-1.6,0.2c-14.8,0-29.6,0-44.4,0c-0.5,0-1,0-1.5,0c-0.2,6.3,2.7,14.8,12.1,16.2
		c4.4,0.6,8.7,0.4,12.7-1.8c2.4-1.3,4.2-3.2,5.5-5.6c0.2-0.3,0.7-0.8,1-0.8c4.9,0,9.7,0,14.6,0c0.1,0,0.2,0.1,0.5,0.2
		c-0.7,1.8-1.4,3.6-2.2,5.3c-4.5,9.4-12.1,14.7-22.3,16.2c-8.9,1.3-17.4,0.2-25.1-4.6c-6.2-3.8-10.4-9.3-12.5-16.3
		c-2.9-9.5-3.1-19,0.8-28.2c4.1-9.9,11.5-16.3,22-18.8c6-1.4,12.1-1.7,18.1,0.2c7.7,2.4,13.5,7.2,17.3,14.3c2.7,5,4.5,10.3,4.9,16
		c0,0.4,0.1,0.8,0.2,1.3C506,76.9,506,79,506,81z M488.3,69.8c-1.7-9.8-6.2-14.6-16.1-13.9c-8.3,0.6-13.4,6.7-13.1,13.9
		C468.9,69.8,478.6,69.8,488.3,69.8z"/>
	<path class="st0" d="M179.2,109.5c-6.1,0-11.9,0-17.9,0c0-30.2,0-60.4,0-90.7c5.9,0,11.8,0,17.9,0c0,11.3,0,22.5,0,33.8
		c0.1,0,0.2,0.1,0.3,0.1c0.4-0.6,0.8-1.1,1.2-1.7c3.8-5.4,9.3-7.8,15.6-8.8c4.5-0.7,8.9-0.2,13.2,1.3c6.3,2.2,10,6.7,11.7,13.1
		c1.1,4,1.3,8.1,1.3,12.2c0,13.2,0,26.4,0,39.6c0,0.3,0,0.7,0,1.1c-6,0-11.9,0-17.9,0c0-0.6,0-1.1,0-1.6c0-11.5,0.1-22.9,0-34.4
		c0-3-0.3-6.1-1-9c-1.4-5.8-4.4-8.1-10.4-8.1c-3.8,0-7.4,0.7-10.1,3.8c-1.9,2.2-2.8,4.9-3.2,7.7c-0.3,2.6-0.5,5.2-0.5,7.8
		c-0.1,10.7,0,21.4,0,32.2C179.2,108.4,179.2,108.9,179.2,109.5z"/>
	<path class="st0" d="M295.2,109.7c-2,0-3.8,0-5.7,0c-3.8,0-7.6,0-11.3,0c-1.1,0-1.7-0.4-2-1.4c-0.4-1.5-0.7-3-1.1-4.5
		c-1.1,0.8-2.2,1.7-3.4,2.6c-3.7,2.7-8,4-12.5,4.6c-3.9,0.5-7.9,0.6-11.8-0.2c-6.3-1.3-11.7-4.1-14.7-10.2c-1.4-2.9-1.9-6-1.9-9.2
		c0-4.9,1.3-9.3,4.6-13c2.8-3.1,6.3-4.8,10.2-5.6c4.9-1,9.9-1.6,14.8-2.4c2.9-0.5,5.9-0.8,8.8-1.6c3.9-1.1,5-2.6,5.1-5.8
		c0.2-3.7-1.5-6.7-4.7-7.9c-4.2-1.6-8.6-1.6-12.8-0.2c-3.5,1.2-5.1,4-5.9,7.5c-0.1,0.5-0.2,0.9-0.3,1.4c-6,0-11.9,0-17.9,0
		c-0.3-3.2,0.5-6.1,1.9-8.7c3.4-6.3,8.9-9.8,15.6-11.5c6.5-1.7,13.2-1.7,19.9-1.2c3.9,0.3,7.8,0.8,11.5,2.4
		c5.4,2.4,9.3,6.1,10.3,12.2c0.2,1.4,0.3,2.8,0.3,4.1c0,11.7,0,23.3,0.1,35c0,3.9,0.2,7.8,1.8,11.5
		C294.5,108.3,294.9,108.9,295.2,109.7z M274.4,77.8c-0.1-0.1-0.2-0.1-0.4-0.2c-2.6,1.9-5.7,2.3-8.8,2.9c-3.3,0.6-6.6,1.1-9.9,1.9
		c-3.4,0.8-6.2,3.8-6.6,7.1c-0.5,4.1,1.6,8.2,6.1,9.1c3.6,0.8,7.2,0.8,10.8-0.2c4.7-1.3,7.5-4.6,8.2-9.2
		C274.4,85.4,274.2,81.5,274.4,77.8z"/>
	<path class="st0" d="M153.7,81c-16,0-31.7,0-47.8,0c0.3,2.1,0.5,4.1,1,5.9c2.1,7.2,6.7,10.6,14.3,10.8c3.3,0.1,6.5-0.3,9.4-1.9
		c2.6-1.3,4.5-3.3,5.9-5.8c0.2-0.3,0.6-0.7,0.9-0.7c5.1,0,10.1,0,15.5,0c-0.8,1.9-1.4,3.6-2.2,5.3c-4.4,9.4-11.9,14.8-22.1,16.4
		c-8,1.3-15.8,0.4-23-3.2c-6.7-3.3-11.4-8.6-14.2-15.6c-3.2-8.2-3.8-16.7-1.7-25.1c3.2-12.5,10.9-20.8,23.6-24
		c7.1-1.8,14.2-1.7,21.1,1.1c6.5,2.6,11.5,7.1,14.7,13.3c1.2,2.3,2.3,4.8,3.2,7.2c1.5,4.1,1.3,8.4,1.4,12.7
		C153.7,78.5,153.7,79.6,153.7,81z M135.8,69.8c-1.3-10.6-7.7-14.7-16.3-13.9c-7.8,0.7-13.5,6.5-12.9,13.9
		C116.3,69.8,126.1,69.8,135.8,69.8z"/>
	<path class="st0" d="M301.9,43.8c5.8,0,11.6,0,17.6,0c0,3,0,6,0,9c0.2,0.1,0.3,0.2,0.5,0.3c0.1-0.2,0.1-0.4,0.2-0.6
		c2.6-4.3,6.3-7.1,11.1-8.7c7.3-2.4,14.6-2.3,21.6,0.9c4.1,1.8,6.5,5.2,8.3,9.1c2.1,4.4,2.5,9.2,2.6,13.9c0.1,13.7,0,27.4,0,41.1
		c0,0.2,0,0.4-0.1,0.8c-5.9,0-11.8,0-17.9,0c0-0.5-0.1-1-0.1-1.5c0-11.5,0.1-23.1,0-34.6c0-3-0.3-6.2-1-9.1c-1.2-5.3-4.6-7.8-9.8-8
		c-8.3-0.3-13.4,3.9-14.6,12.1c-0.4,2.6-0.5,5.2-0.5,7.8c-0.1,10.7,0,21.4,0,32c0,0.5,0,1,0,1.7c-6,0-11.9,0-17.9,0
		C301.9,87.9,301.9,65.8,301.9,43.8z"/>
	<path class="st0" d="M434.8,67.2c-6.1,0-11.9,0-17.6,0c-0.5-1.9-0.9-3.7-1.6-5.4c-1.8-4.2-5.4-5.8-9.7-6.2c-8-0.8-13,3.8-15.4,10.5
		c-2.5,6.8-2.3,13.8-0.3,20.7c1.4,4.8,4.3,8.8,9.3,10.3c6.9,2.2,16.4-0.2,18.5-10.3c0.1-0.7,0.2-1.5,0.4-2.3c5.7,0,11.4,0,17.3,0
		c-0.5,3.8-1.5,7.4-3.1,10.8c-3.5,7.3-9.3,12-16.9,14.3c-9.7,2.8-19.3,2.3-28.3-2.5c-9.5-5.1-14.8-13.3-16.2-24
		c-0.7-5.2-0.6-10.4,0.7-15.5c2.4-9.3,7.1-17.1,15.9-21.8c6-3.2,12.5-4.2,19.2-3.8c4.4,0.3,8.7,1.2,12.7,3
		c7.5,3.4,12.6,8.8,14.3,17.1C434.3,63.9,434.5,65.4,434.8,67.2z"/>
	<path class="st0" d="M139.1,25.1c0,2.9,0,5.7,0,8.7c-0.5,0-0.9,0.1-1.3,0.1c-11.3,0-22.5,0-33.8,0c-1.2,0-1.5-0.4-1.5-1.5
		c0.1-2.4,0-4.7,0-7.2C114.7,25.1,126.8,25.1,139.1,25.1z"/>
</g>
</svg>
