<?xml version="1.0" encoding="utf-8"?>
<!-- Generator: Adobe Illustrator 26.1.0, SVG Export Plug-In . SVG Version: 6.00 Build 0)  -->
<svg version="1.1" id="Layer_1" xmlns="http://www.w3.org/2000/svg" xmlns:xlink="http://www.w3.org/1999/xlink" x="0px" y="0px"
	 viewBox="0 0 507.2 134.8" style="enable-background:new 0 0 507.2 134.8;" xml:space="preserve">
<style type="text/css">
	.st0{fill:#EC407A;}
</style>
<path id="dribbble_logo_icon_168233" class="st0" d="M156.3,55.5c5.7,0,10.4-4.6,10.4-10.4c0-5.7-4.6-10.4-10.4-10.4
	c-5.7,0-10.4,4.6-10.4,10.4l0,0C146,50.9,150.6,55.5,156.3,55.5z M498.3,90.9c-1.6-1.1-2.8-1.3-3.8,0.9
	c-17.4,37.7-46.7,18.9-43.8,20.5c6.5-3,23.6-16.7,21-35.6c-1.2-9.6-10-16.5-19.6-15.3c-0.8,0.1-1.6,0.3-2.4,0.5
	c-18.4,3.2-25.2,23.1-21.7,40.7c0.6,2.8,1.5,5.4,2.8,8c-20.8,16.9-29.1-15.2-30-19c0-0.2,16.1-13.6,20.5-45.6
	c4.7-33.5-6-39.6-16.9-39.4C384.1,6.8,378.6,49,386,84.3c-2.5,1.1-5.3,1.8-8.1,1.9c-3.3-10.4-17.5-19.5-21.2-16
	c-9.3,8.8,2.3,26,10.3,27.4c-4.9,30-35.3,22.5-29.6-15c9.9-18.4,17.5-45.8,16.1-62.3C353.2,12.6,346.7,6.7,339,7h-0.1
	c-18.8,0.8-20.9,43-18.7,73c-2.2,2.9-5.3,5-8.9,5.8c-1.8-10.1-18.1-20.3-22-15.4c-7.2,9.1,5.3,25.4,11.1,26.6
	c-4.9,30-35.3,22.5-29.6-15c9.9-18.4,17.5-45.8,16.1-62.3C286.7,12,280.3,6,272.6,6.4h-0.1c-18.8,0.8-20.9,43-18.7,73
	c-2.2,3-5.5,5.1-9.2,5.9c-0.3-13.1-16.6-19.2-20.5-15c-7,7.5,1.6,22.8,9.6,26.6c-4.9,30-35.3,22.5-29.6-15
	c9.9-18.4,17.5-45.8,16.1-62.3C219.8,12,213.4,6,205.7,6.3h-0.1c-18.8,0.8-20.3,45.2-18.1,75.2c-6.2,26.5-27,59.7-24.3-6.7
	c0.3-4.7,0.6-6.5-1.8-8.2c-1.8-1.3-5.7-0.7-7.9-0.7c-2.6,0.1-3.3,1.6-3.9,4c-1.3,6.5-1.9,13.1-1.8,19.8c-0.1,3.6-0.7,7.1-1.8,10.5
	c-1.4,5-9.6,14.3-14,12.8c-6.2-2.1-4.2-19.6-3-31.6c1-9.5-2.1-13.8-10.1-15.3c-4.2-0.5-8.3-1.3-12.3-2.3c-4.6-1.4-5.6-10.1-15.4-7.2
	c-5.3,1.6-1.9,12.9-3.2,21.3c-6.3,41.2-19.4,42.4-25.5,22.3c27.5-67.1,8-93.6-3.4-93.6c-11.9,0-25.5,8.2-19.7,60.5
	c-2.1-0.8-4.4-1.3-6.7-1.2C16.5,66,3.4,79.3,3.6,95.6c0,0.5,0,1,0.1,1.5c-1,16.2,11.4,30.2,27.6,31.2c0.5,0,1,0,1.5,0.1
	c9.1,0.1,17.7-4.3,22.8-11.8c3.5,5.1,7.9,11.9,15.8,11.6c23.5-0.9,30.4-49.2,31.2-51.9c2.5,0.4,4.9,1.1,7.2,1.5
	c3.9,0.6,4.1,2.1,4.1,6c-1,32.8,5,44.3,18.8,44.3c7.6,0,14.5-7.5,19.2-12.9c2.6,7.1,9.1,12.1,16.6,12.9
	c18.2,0.5,25.1-28.5,24.5-24.7c-0.5,3,5.9,24.5,24.6,24.6c23.2,0.1,27.5-25.4,28-29.7c0.1-0.9,0.1-0.8,0,0v0.3
	c4.1-0.7,8-2.5,11.1-5.3c0,0,5.9,35.1,27.8,34.7c22.7-0.4,27-23.5,27.6-28c0.1-1.1,0.1-0.9,0,0v0.1c4.2-1.1,8-3.3,11-6.4
	c0,0,4.5,34.5,27.7,34.8c20.6,0.3,28.2-20.8,28.2-29.7c3.3-0.2,6.6-1,9.8-2.2c0,0,7.5,30.1,28.6,31.7c8-0.2,15.6-3.2,21.5-8.4
	c9.9,8,43,18.3,63.9-17.1C505.8,97.7,499.4,91.7,498.3,90.9L498.3,90.9z M31.8,116.6c-9.9-0.7-17.3-9.3-16.6-19.2c0-0.1,0-0.1,0-0.2
	c0-10.1,5.9-19.4,16-19.4c3.9-0.4,7.8,0.9,10.6,3.6c1,3.7,2.1,7.4,3.3,11c1.2,3.5,2.6,6.6,4,9.9C47.6,110.6,40.3,116.6,31.8,116.6
	L31.8,116.6z M56.4,81.7c-0.4-0.7-0.3-0.3-0.8-0.9c-3.4-9.3-5.4-19.1-5.8-29c-0.5-14.4,1.9-31.4,9-31.4
	C63.6,20.4,68.7,54.7,56.4,81.7L56.4,81.7z M198.6,66.7c-1.1-8.6-1.2-46.8,8-45.7C211.6,23,203.3,59,198.6,66.7z M265.6,66.7
	c-1.1-8.6-1.2-46.8,8-45.7C278.6,23,270.3,59,265.6,66.7z M332,67.2c-1.1-8.6-1.2-46.8,8-45.7C345,23.5,336.7,59.6,332,67.2
	L332,67.2z M405.3,18.7c8.4-0.9,8,35.7-8.8,58.9C394.4,69.2,391,21.6,405.3,18.7L405.3,18.7z M440.6,97.5
	C437.9,83.9,444.8,75,452,74c3-0.4,5.9,1.4,6.9,4.3c1.2,5.7-0.2,14.2-16.2,25C441.7,101.4,441,99.5,440.6,97.5L440.6,97.5z"/>
</svg>
