<?xml version="1.0" encoding="utf-8"?>
<!-- Generator: Adobe Illustrator 22.0.1, SVG Export Plug-In . SVG Version: 6.00 Build 0)  -->
<svg version="1.1" id="Capa_1" xmlns="http://www.w3.org/2000/svg" xmlns:xlink="http://www.w3.org/1999/xlink" x="0px" y="0px"
	 viewBox="0 0 60 60" style="enable-background:new 0 0 60 60;" xml:space="preserve">
<style type="text/css">
	.st0{fill:#0A57F4;}
</style>
<g>
	<g>
		<g>
			<path class="st0" d="M46.7,16.7h-8.2C37.3,12,32.7,9.1,28,10.2c-3.2,0.8-5.7,3.2-6.4,6.4h-8.2c-1.8,0-3.3,1.5-3.3,3.3v21.3
				c0,1.8,1.5,3.3,3.3,3.3h14v4H18c-0.4,0-0.7,0.3-0.7,0.7c0,0.4,0.3,0.7,0.7,0.7h24c0.4,0,0.7-0.3,0.7-0.7c0-0.4-0.3-0.7-0.7-0.7
				h-9.3v-4h14c1.8,0,3.3-1.5,3.3-3.3V20C50,18.2,48.5,16.7,46.7,16.7z M22.7,18c0-0.1,0-0.2,0-0.3c0.5-3.6,3.6-6.3,7.3-6.4
				c3.7,0,6.8,2.7,7.3,6.4c0,0.1,0,0.2,0,0.3c0,0.2,0,0.4,0,0.7c0,4-3.3,7.3-7.3,7.3c-0.2,0-0.5,0-0.7,0c-0.1,0-0.1,0-0.2,0
				c-0.2,0-0.4,0-0.6-0.1c0,0-0.1,0-0.1,0c-0.2,0-0.4-0.1-0.6-0.1c0,0,0,0-0.1,0c-0.2-0.1-0.4-0.1-0.6-0.2l0,0
				c-2-0.8-3.5-2.5-4.1-4.6v0c-0.1-0.2-0.1-0.4-0.1-0.6c0,0,0-0.1,0-0.1c0,0,0-0.1,0-0.1c0-0.2-0.1-0.4-0.1-0.6c0,0,0-0.1,0-0.1
				c0-0.2,0-0.5,0-0.7C22.7,18.4,22.7,18.2,22.7,18z M31.3,48.7h-2.7v-4h2.7V48.7z M48.7,41.3c0,1.1-0.9,2-2,2H13.3
				c-1.1,0-2-0.9-2-2v-0.7h37.3V41.3z M48.7,39.3H35.3H24.7H11.3V20c0-1.1,0.9-2,2-2h8c0,0.2,0,0.4,0,0.7c0,0.3,0,0.5,0,0.8
				c0,0.1,0,0.2,0,0.3c0,0.2,0.1,0.4,0.1,0.7v0c0.6,2.8,2.5,5.1,5.1,6.2l0,0c0.2,0.1,0.5,0.2,0.7,0.3c0,0,0.1,0,0.1,0
				c0.2,0.1,0.4,0.1,0.7,0.2c0.1,0,0.1,0,0.2,0c0.2,0,0.4,0.1,0.7,0.1c0.1,0,0.1,0,0.2,0c0.3,0,0.6,0,0.9,0c4.8,0,8.7-3.9,8.7-8.7
				c0-0.2,0-0.4,0-0.7h8c1.1,0,2,0.9,2,2V39.3z"/>
			<path class="st0" d="M27.3,36.7c0-1.5-1.2-2.7-2.7-2.7S22,35.2,22,36.7c0,1.5,1.2,2.7,2.7,2.7S27.3,38.1,27.3,36.7z M24.7,38
				c-0.7,0-1.3-0.6-1.3-1.3s0.6-1.3,1.3-1.3c0.7,0,1.3,0.6,1.3,1.3S25.4,38,24.7,38z"/>
			<path class="st0" d="M38,36.7c0-1.5-1.2-2.7-2.7-2.7c-1.5,0-2.7,1.2-2.7,2.7c0,1.5,1.2,2.7,2.7,2.7C36.8,39.3,38,38.1,38,36.7z
				 M35.3,38c-0.7,0-1.3-0.6-1.3-1.3s0.6-1.3,1.3-1.3c0.7,0,1.3,0.6,1.3,1.3S36.1,38,35.3,38z"/>
			<path class="st0" d="M41.5,21.4c-0.3-0.1-0.7,0.1-0.8,0.5L39,28.5c-0.6,2.1-2.5,3.6-4.7,3.5h-13l-1.8-12.1c0-0.3-0.3-0.6-0.6-0.6
				l-2.8,0c-0.4,0-0.7,0.3-0.7,0.7c0,0.4,0.3,0.7,0.7,0.7l2.2,0L20,32.8c0,0.3,0.3,0.6,0.7,0.6h13.6c2.8,0,5.3-1.8,6-4.5l1.7-6.6
				C42.1,21.8,41.8,21.5,41.5,21.4z"/>
			<path class="st0" d="M30,22c-0.7,0-1.3-0.6-1.3-1.3c0-0.4-0.3-0.7-0.7-0.7c-0.4,0-0.7,0.3-0.7,0.7c0,1.2,0.8,2.3,2,2.6V24h1.3
				v-0.8c1.4-0.4,2.3-1.8,1.9-3.2c-0.3-1.2-1.4-2-2.6-2c-0.6,0-1.1-0.4-1.3-0.9c-0.1-0.1-0.1-0.3-0.1-0.4c0-0.7,0.6-1.3,1.3-1.3
				c0.7,0,1.3,0.6,1.3,1.3c0,0.4,0.3,0.7,0.7,0.7c0.4,0,0.7-0.3,0.7-0.7c0-1.2-0.8-2.2-1.9-2.5c0,0-0.1,0-0.1,0v-0.8h-1.3v0.8
				c-1.2,0.3-2,1.4-2,2.6c0,0.3,0.1,0.6,0.2,0.9c0.4,1.1,1.4,1.8,2.5,1.8c0.7,0,1.3,0.6,1.3,1.3S30.7,22,30,22z"/>
		</g>
	</g>
</g>
</svg>
