<?xml version="1.0" encoding="utf-8"?>
<!-- Generator: Adobe Illustrator 26.1.0, SVG Export Plug-In . SVG Version: 6.00 Build 0)  -->
<svg version="1.1" id="Layer_1" xmlns="http://www.w3.org/2000/svg" xmlns:xlink="http://www.w3.org/1999/xlink" x="0px" y="0px" width="35.8"
	 viewBox="0 0 35.8 37.6" style="enable-background:new 0 0 35.8 37.6;" xml:space="preserve">
<style type="text/css">
	.st0{fill:url(#SVGID_1_);}
	.st1{fill:#FFFFFF;}
</style>
<linearGradient id="SVGID_1_" gradientUnits="userSpaceOnUse" x1="5.5334" y1="7.3558" x2="29.2967" y2="31.119">
	<stop  offset="0" style="stop-color:#1677F1"/>
	<stop  offset="0.1756" style="stop-color:#186EE9"/>
	<stop  offset="0.4613" style="stop-color:#1E56D3"/>
	<stop  offset="0.8194" style="stop-color:#262EB0"/>
	<stop  offset="1" style="stop-color:#2B189C"/>
</linearGradient>
<path class="st0" d="M33.1,14.2c1.2-2-1.2-4.8-3.4-3.4c0,0,0,0-0.1,0c0.1-0.1,0.2-0.2,0.4-0.4c2.1-1.9-0.6-5.4-3-3.9
	c-1.5,0.9-3,1.9-4.5,2.9C23.7,8.2,25,7,26.2,5.9c2.2-2-0.6-5.2-3-3.9c-0.6,0.3-1.1,0.6-1.7,1c0.4-1.8-1.7-3.6-3.7-2.6
	c-5.5,2.5-10.6,5.9-15.1,10c-2,1.8,0,4.4,2.1,4.2c-1.5,1.8-3,3.7-4.4,5.6c-1.4,1.9,0.9,4.1,2.9,3.7c-0.4,0.6-0.9,1.2-1.3,1.7
	c-0.7,1-0.3,2.5,0.6,3.2c1,0.8,2.3,0.7,3.3-0.2c0.3-0.2,0.5-0.5,0.8-0.7c-0.4,0.5-0.9,1-1.4,1.6c-0.9,1-1,2.5,0,3.5
	c0.8,0.8,2.1,0.9,3.1,0.3c0.1,0.6,0.5,1.2,0.9,1.6c1,0.7,2,0.6,3,0c-0.1,1.8,2,3.7,3.7,2.4c1-0.8,2.1-1.6,3.1-2.3
	c0.7,1.3,2.5,2,3.9,0.7c2.3-2.1,4.7-3.9,7.3-5.6c1.3-0.8,1.4-2.3,0.8-3.4l2.5-2.8c0.8-0.9,1-2.3,0.2-3.3c-0.1-0.2-0.3-0.4-0.6-0.5
	c0.6-0.5,1.1-1,1.7-1.5C36.8,16.8,35.1,14.1,33.1,14.2z"/>
<path class="st1" d="M19.3,30.9v-9.2h3.1L23,18h-3.6v-2.5c0-1,0.5-2.1,2.1-2.1h1.7v-3.2c0,0-1.5-0.3-2.9-0.3c-3,0-5,1.8-5,5.1V18
	h-3.3v3.8h3.3v9.2H19.3z"/>
</svg>
