<?xml version="1.0" encoding="utf-8"?>
<!-- Generator: Adobe Illustrator 26.1.0, SVG Export Plug-In . SVG Version: 6.00 Build 0)  -->
<svg version="1.1" id="Layer_1" xmlns="http://www.w3.org/2000/svg" xmlns:xlink="http://www.w3.org/1999/xlink" x="0px" y="0px"
	 viewBox="0 0 200 200" style="enable-background:new 0 0 200 200;" xml:space="preserve">
<style type="text/css">
	.st0{opacity:0.2;fill:#FBD282;}
	.st1{fill:#CBAA69;}
	.st2{fill:#CCA665;}
	.st3{fill:#FBD282;}
	.st4{fill:#FDE3B1;}
	.st5{fill:#866F43;}
</style>
<circle class="st0" cx="102.4" cy="100.4" r="88.6"/>
<g>
	<rect x="98.3" y="10.9" class="st1" width="3.7" height="26.9"/>
	<rect x="31.9" y="68.6" class="st1" width="1.8" height="18.5"/>
	<rect x="65.1" y="98.1" class="st2" width="35.1" height="22.2"/>
	<path class="st3" d="M100.1,98.1V29.5c0,0-43.7,15.8-48.3,39.2c-4.6,23.4,13.8,29.4,13.8,29.4H100.1z"/>
	<rect x="16.2" y="120.3" class="st4" width="84" height="63.1"/>
	<polygon class="st5" points="100.1,183.4 100.1,127.9 82,142 82,183.4 	"/>
	<rect x="16.2" y="120.3" class="st3" width="49" height="63.1"/>
	<path class="st5" d="M40.7,137.5c-4.4,0-7.9,3.5-7.9,7.9v21.3h15.8v-21.3C48.6,141.1,45,137.5,40.7,137.5z"/>
	<rect x="16.2" y="102.4" class="st2" width="32.4" height="17.9"/>
	<rect x="11.8" y="96.4" class="st2" width="41.2" height="6"/>
	<rect x="4" y="183.4" class="st2" width="96.2" height="4.5"/>
	<path class="st3" d="M32.8,96.4V77.9c-15.5,0-16.6,18.5-16.6,18.5H32.8z"/>
	<path class="st3" d="M32.8,96.4V77.9c15.5,0,16.6,18.5,16.6,18.5H32.8z"/>
	
		<rect x="166.7" y="68.6" transform="matrix(-1 -1.224647e-16 1.224647e-16 -1 335.0786 155.7078)" class="st1" width="1.8" height="18.5"/>
	<rect x="100.1" y="98.1" class="st2" width="35.1" height="22.2"/>
	<path class="st3" d="M100.1,98.1V29.5c0,0,43.7,15.8,48.3,39.2c4.6,23.4-13.8,29.4-13.8,29.4H100.1z"/>
	
		<rect x="100.1" y="120.3" transform="matrix(-1 -1.224647e-16 1.224647e-16 -1 284.2828 303.6405)" class="st4" width="84" height="63.1"/>
	<polygon class="st5" points="100.1,183.4 100.1,127.9 118.3,142 118.3,183.4 	"/>
	
		<rect x="135.1" y="120.3" transform="matrix(-1 -1.224647e-16 1.224647e-16 -1 319.273 303.6405)" class="st3" width="49" height="63.1"/>
	<path class="st5" d="M159.6,137.5c4.4,0,7.9,3.5,7.9,7.9v21.3h-15.8v-21.3C151.7,141.1,155.3,137.5,159.6,137.5z"/>
	
		<rect x="151.7" y="102.4" transform="matrix(-1 -1.224647e-16 1.224647e-16 -1 335.8675 222.6398)" class="st2" width="32.4" height="17.9"/>
	
		<rect x="147.3" y="96.4" transform="matrix(-1 -1.224647e-16 1.224647e-16 -1 335.8675 198.766)" class="st2" width="41.2" height="6"/>
	
		<rect x="100.1" y="183.4" transform="matrix(-1 -1.224647e-16 1.224647e-16 -1 296.4757 371.2121)" class="st2" width="96.2" height="4.5"/>
	<path class="st3" d="M167.5,96.4V77.9c15.5,0,16.6,18.5,16.6,18.5H167.5z"/>
	<path class="st3" d="M167.5,96.4V77.9c-15.5,0-16.6,18.5-16.6,18.5H167.5z"/>
</g>
</svg>
