<?xml version="1.0" encoding="utf-8"?>
<!-- Generator: Adobe Illustrator 26.1.0, SVG Export Plug-In . SVG Version: 6.00 Build 0)  -->
<svg version="1.1" id="Layer_1" xmlns="http://www.w3.org/2000/svg" xmlns:xlink="http://www.w3.org/1999/xlink" x="0px" y="0px" width="35.8"
	 viewBox="0 0 35.8 37.6" style="enable-background:new 0 0 35.8 37.6;" xml:space="preserve">
<style type="text/css">
	.st0{fill:url(#SVGID_1_);}
	.st1{fill:#FFFFFF;}
</style>
<linearGradient id="SVGID_1_" gradientUnits="userSpaceOnUse" x1="5.6688" y1="7.4" x2="29.4321" y2="31.1633">
	<stop  offset="1.104800e-03" style="stop-color:#FFE185"/>
	<stop  offset="0.2094" style="stop-color:#FFBB36"/>
	<stop  offset="0.3765" style="stop-color:#FF5176"/>
	<stop  offset="0.5238" style="stop-color:#F63395"/>
	<stop  offset="0.7394" style="stop-color:#A436D2"/>
	<stop  offset="1" style="stop-color:#5F4EED"/>
</linearGradient>
<path class="st0" d="M33.3,14.2c1.2-2-1.2-4.8-3.4-3.4c0,0,0,0-0.1,0c0.1-0.1,0.2-0.2,0.4-0.4c2.1-1.9-0.6-5.4-3-3.9
	c-1.5,0.9-3,1.9-4.5,2.9c1.2-1.2,2.5-2.4,3.7-3.5c2.2-2-0.6-5.2-3-3.9c-0.6,0.3-1.1,0.6-1.7,1c0.4-1.8-1.7-3.6-3.7-2.6
	c-5.5,2.5-10.6,5.9-15.1,10c-2,1.8,0,4.4,2.1,4.2c-1.5,1.8-3,3.7-4.4,5.6c-1.4,1.9,0.9,4.1,2.9,3.7c-0.4,0.6-0.9,1.2-1.3,1.7
	c-0.7,1-0.3,2.5,0.6,3.2c1,0.8,2.3,0.7,3.3-0.2c0.3-0.2,0.5-0.5,0.8-0.7c-0.5,0.5-0.9,1-1.4,1.6c-0.9,1-1,2.5,0,3.5
	c0.8,0.8,2.1,0.9,3.1,0.3c0.1,0.6,0.5,1.2,0.9,1.6c1,0.7,2,0.6,3,0c-0.1,1.8,2,3.7,3.7,2.4c1-0.8,2.1-1.6,3.1-2.3
	c0.7,1.3,2.5,2,3.9,0.7c2.3-2.1,4.7-3.9,7.3-5.6c1.3-0.8,1.4-2.3,0.8-3.4l2.5-2.8c0.8-0.9,1-2.3,0.2-3.3c-0.1-0.2-0.3-0.4-0.6-0.5
	c0.6-0.5,1.1-1,1.7-1.5C36.9,16.9,35.3,14.1,33.3,14.2z"/>
<path class="st1" d="M22.6,13.3c-0.6,0-1,0.4-1,1c0,0.6,0.5,1,1,1c0.6,0,1-0.5,1-1C23.6,13.7,23.1,13.3,22.6,13.3z"/>
<path class="st1" d="M18.1,14.6c-2.3,0-4.2,1.9-4.2,4.2c0,2.3,1.9,4.2,4.2,4.2c2.3,0,4.2-1.9,4.2-4.2C22.3,16.5,20.4,14.6,18.1,14.6
	z M18.1,21.5c-1.5,0-2.7-1.2-2.7-2.7c0-1.5,1.2-2.7,2.7-2.7c1.5,0,2.7,1.2,2.7,2.7C20.8,20.3,19.6,21.5,18.1,21.5z"/>
<path class="st1" d="M21.4,27.4h-6.8c-2.8,0-5.1-2.3-5.1-5.1v-6.8c0-2.8,2.3-5.1,5.1-5.1h6.8c2.8,0,5.1,2.3,5.1,5.1v6.8
	C26.6,25.1,24.3,27.4,21.4,27.4z M14.6,11.8c-2,0-3.5,1.6-3.5,3.5v6.8c0,2,1.6,3.5,3.5,3.5h6.8c2,0,3.5-1.6,3.5-3.5v-6.8
	c0-2-1.6-3.5-3.5-3.5H14.6z"/>
</svg>
