<?xml version="1.0" encoding="utf-8"?>
<!-- Generator: Adobe Illustrator 22.0.1, SVG Export Plug-In . SVG Version: 6.00 Build 0)  -->
<svg version="1.1" id="Layer_1" xmlns="http://www.w3.org/2000/svg" xmlns:xlink="http://www.w3.org/1999/xlink" x="0px" y="0px"
	 viewBox="0 0 60 60" style="enable-background:new 0 0 60 60;" xml:space="preserve">
<style type="text/css">
	.st0{fill:#0A57F4;}
</style>
<path class="st0" d="M54.3,12.4c-0.2,0.8-0.6,1.6-1,2.2c-0.6,0.9-1.3,1.7-2.1,2.4c-1.1,0.9-2.2,1.9-3.4,2.8L46.4,21
	c-0.3,0.3-0.5,0.5-0.4,1c0.1,0.9,0.3,2,0.4,2.9l1.6,11.9c0.1,0.5,0.1,1.3-0.1,2.1c-0.3,1-0.9,1.8-2,2.3c-0.1,0.1-0.3,0.2-0.5,0.3
	c-0.3,0.1-0.5,0.2-0.8,0.2c-0.7,0-1.2-0.4-1.5-1.2c-0.2-0.4-0.3-0.9-0.5-1.4l-3.1-8c-0.3-0.8-0.7-1.6-1.1-2.3l-0.2-0.3l-0.9,0.7
	c-1.7,1.4-3.6,2.8-5.4,4.2c0.1,0.5,0.3,1.1,0.4,1.6l0.1,0.6c0.2,0.7,0.2,1.5-0.1,2.2c-0.3,0.8-0.9,1.4-1.7,1.6
	c-0.7,0.2-1.2-0.1-1.5-0.3c-0.3-0.1-0.5-0.3-0.7-0.6c-1.6-1.9-3.1-3.9-4.6-5.8l-1.3-1.6c-0.2-0.1-0.3-0.3-0.4-0.5
	c-0.5-0.7-0.5-1.4,0.1-2c0.3-0.3,0.7-0.7,1-1c0.6-0.5,1.4-0.6,2.2-0.3c0.6,0.3,1.1,0.6,1.7,0.9l0.7,0.3c0.1,0,0.1,0.1,0.2,0.1
	c0.5-0.5,0.9-0.9,1.4-1.4l4.4-4.2c-0.1-0.2-0.3-0.3-0.4-0.5c-0.6-0.7-1.4-1.3-2.3-1.9c-2.3-1.6-4.6-3.2-6.9-4.8
	c-0.3-0.2-0.5-0.4-0.7-0.6c-0.7-0.6-0.8-1.4-0.3-2.2c0.4-0.7,1-1.4,1.7-2c0.4-0.3,1.1-0.6,2-0.3c0.4,0.1,0.9,0.3,1.3,0.4L40.9,16
	c0.3,0.1,0.5,0.1,0.7,0.2c0.4,0.1,0.7-0.1,1-0.3c0.3-0.3,0.7-0.6,1-0.9c0.5-0.5,1.1-0.9,1.6-1.4c1-0.8,2-1.6,3-2.4
	c1-0.7,2.1-1.2,3.4-1.4c0.7-0.1,1.3,0.1,1.9,0.4C54.3,10.6,54.7,11.5,54.3,12.4z M52.8,11.3c-0.3-0.1-0.5-0.2-0.9-0.1
	c-1,0.1-2,0.5-2.8,1.2c-0.9,0.7-1.8,1.5-3,2.4l-1.6,1.4c-0.3,0.3-0.7,0.6-1,1c-0.6,0.5-1.3,0.7-2.1,0.6c-0.3-0.1-0.6-0.1-0.9-0.3
	l-12.6-4.7c-0.4-0.2-0.8-0.3-1.2-0.4c-0.5-0.1-0.7-0.1-0.8,0.1c-0.6,0.5-1.1,1-1.5,1.6c-0.1,0.1-0.1,0.2,0.1,0.4
	c0.2,0.2,0.4,0.3,0.6,0.5c2.3,1.6,4.6,3.2,6.9,4.8c0.9,0.6,1.8,1.3,2.6,2.2c0.2,0.2,0.3,0.5,0.5,0.7c0.1,0.1,0.1,0.2,0.2,0.3
	l0.3,0.5l-0.5,0.5l-4.6,4.4c-0.5,0.5-1.1,1-1.6,1.6c-0.3,0.3-0.7,0.3-1.1,0.1l-0.4-0.2l-0.7-0.3c-0.6-0.3-1.2-0.6-1.7-0.9
	c-0.3-0.1-0.5-0.1-0.7,0.1c-0.3,0.2-0.6,0.5-0.9,0.8l-0.1,0.1c0,0,0,0.1,0.1,0.1c0.1,0.2,0.2,0.3,0.3,0.5l1.3,1.6
	c1.5,2,3,3.9,4.5,5.8c0.1,0.1,0.2,0.3,0.3,0.3c0.2,0.1,0.3,0.1,0.3,0.1c0.5-0.1,0.7-0.4,0.9-0.8c0.2-0.4,0.2-0.9,0.1-1.4l-0.1-0.6
	c-0.1-0.6-0.3-1.2-0.5-1.8c-0.1-0.3-0.1-0.7,0.3-1c1.8-1.4,3.7-2.9,5.6-4.3l2.1-1.6l0.6,0.9l0.4,0.7c0.5,0.8,0.9,1.6,1.3,2.5l3,8
	c0.2,0.5,0.3,0.9,0.5,1.4c0.1,0.3,0.3,0.4,0.7,0.3c0.2-0.1,0.3-0.1,0.5-0.2c0.7-0.3,1.1-0.8,1.3-1.4c0.1-0.4,0.1-0.9,0.1-1.6
	l-1.6-11.9c-0.1-1-0.3-1.9-0.4-2.9c-0.1-0.9,0.2-1.8,0.9-2.3l1.3-1.2c1.1-0.9,2.3-1.9,3.4-2.8c0.8-0.7,1.4-1.4,1.8-2
	c0.3-0.5,0.7-1.2,0.9-1.8C53.2,11.7,53,11.3,52.8,11.3z M23.3,36.6L6.6,49.4c-0.1,0.1-0.3,0.1-0.4,0.1c-0.2,0-0.4-0.1-0.5-0.3
	c-0.2-0.3-0.1-0.7,0.1-0.9l16.7-12.8c0.3-0.2,0.7-0.1,0.9,0.1C23.6,36,23.6,36.4,23.3,36.6z M25.5,39.8l-10.2,7.9
	c-0.1,0.1-0.3,0.1-0.4,0.1c-0.2,0-0.4-0.1-0.5-0.3c-0.2-0.3-0.1-0.7,0.1-1l10.2-7.9c0.3-0.2,0.7-0.1,1,0.1
	C25.9,39.1,25.8,39.6,25.5,39.8z M13.5,49l-1.7,1.3c-0.1,0.1-0.3,0.1-0.4,0.1c-0.2,0-0.4-0.1-0.5-0.3c-0.2-0.3-0.1-0.7,0.1-0.9
	l1.7-1.3c0.3-0.2,0.7-0.1,0.9,0.1C13.9,48.3,13.8,48.7,13.5,49z M11.3,41.4l-1.7,1.3c-0.1,0.1-0.3,0.1-0.4,0.1
	c-0.2,0-0.4-0.1-0.5-0.3c-0.2-0.3-0.1-0.7,0.1-0.9l1.7-1.3c0.3-0.2,0.7-0.1,0.9,0.1C11.7,40.7,11.6,41.2,11.3,41.4z M21.1,34l-8,6.1
	c-0.1,0.1-0.3,0.1-0.4,0.1c-0.2,0-0.4-0.1-0.5-0.3c-0.2-0.3-0.1-0.7,0.1-1l8-6.1c0.3-0.2,0.7-0.1,0.9,0.1
	C21.4,33.3,21.3,33.8,21.1,34z"/>
</svg>
