<?xml version="1.0" encoding="utf-8"?>
<!-- Generator: Adobe Illustrator 22.0.1, SVG Export Plug-In . SVG Version: 6.00 Build 0)  -->
<svg version="1.1" id="Layer_1" xmlns="http://www.w3.org/2000/svg" xmlns:xlink="http://www.w3.org/1999/xlink" x="0px" y="0px"
	 viewBox="0 0 60 60" style="enable-background:new 0 0 60 60;" xml:space="preserve">
<style type="text/css">
	.st0{fill:#0A57F4;}
</style>
<g>
	<g>
		<path id="SVGID_19_" class="st0" d="M46.9,31.2h-1.3v-1.3h1.3c0.3,0,0.6-0.2,0.7-0.6c0-0.3-0.2-0.6-0.5-0.7l-13-3.9v-6.6l8.2,2.4
			h-6.9c-0.4,0-0.7,0.3-0.7,0.7c0,0.4,0.3,0.7,0.7,0.7h8.8v1.3h-1.3c-0.4,0-0.7,0.3-0.7,0.7c0,0.4,0.3,0.7,0.7,0.7h4
			c0.4,0,0.7-0.3,0.7-0.7c0-0.4-0.3-0.7-0.7-0.7h-1.3v-1.3h1.3c0.3,0,0.6-0.2,0.7-0.6c0-0.3-0.2-0.6-0.5-0.7l-13.2-3.9l-3.2-6.4
			c-0.1-0.2-0.3-0.4-0.6-0.4h0c-0.3,0-0.5,0.1-0.6,0.4l-3.4,6.7c0,0,0,0,0,0c0,0,0,0.1,0,0.1c0,0,0,0.1,0,0.1c0,0,0,0,0,0v3.3h-8.1
			l7-2c0.4-0.1,0.6-0.5,0.5-0.8c-0.1-0.4-0.5-0.6-0.8-0.5l-11.4,3.3c-0.3,0.1-0.5,0.4-0.5,0.7c0,0.3,0.3,0.6,0.7,0.6h1.3v1.3h-1.3
			c-0.4,0-0.7,0.3-0.7,0.7c0,0.4,0.3,0.7,0.7,0.7h4c0.4,0,0.7-0.3,0.7-0.7c0-0.4-0.3-0.7-0.7-0.7H16v-1.3h10.1v6.7h-8.1l7-2
			c0.4-0.1,0.6-0.5,0.5-0.8c-0.1-0.4-0.5-0.6-0.8-0.5l-11.4,3.3c-0.3,0.1-0.5,0.4-0.5,0.7c0,0.3,0.3,0.6,0.7,0.6h1.3v1.3h-1.3
			c-0.4,0-0.7,0.3-0.7,0.7s0.3,0.7,0.7,0.7h4c0.4,0,0.7-0.3,0.7-0.7s-0.3-0.7-0.7-0.7H16v-1.3h9.9l-5,17.3h-2.2
			c-0.4,0-0.7,0.3-0.7,0.7v1.3c0,0.4,0.3,0.7,0.7,0.7s0.7-0.3,0.7-0.7v-0.7h2h0h17.5h0h2v0.7c0,0.4,0.3,0.7,0.7,0.7
			c0.4,0,0.7-0.3,0.7-0.7v-1.3c0-0.4-0.3-0.7-0.7-0.7h-2.2l-5.2-18.1v-3l8.2,2.4h-6.9c-0.4,0-0.7,0.3-0.7,0.7c0,0.4,0.3,0.7,0.7,0.7
			h8.8v1.3h-1.3c-0.4,0-0.7,0.3-0.7,0.7s0.3,0.7,0.7,0.7h4c0.4,0,0.7-0.3,0.7-0.7C47.6,31.5,47.3,31.2,46.9,31.2L46.9,31.2z
			 M22.2,47.2l2.2-7.6l4.4,2.8l-4.7,3c-0.3,0.2-0.4,0.6-0.2,0.9c0.1,0.2,0.3,0.3,0.6,0.3c0.1,0,0.2,0,0.4-0.1l5.2-3.3l6.4,4.1
			L22.2,47.2L22.2,47.2L22.2,47.2z M37.7,46.4l-12.9-8.1l1.5-5.3l2.5,1.6l-2.5,1.6c-0.3,0.2-0.4,0.6-0.2,0.9
			c0.1,0.2,0.3,0.3,0.6,0.3c0.1,0,0.3,0,0.4-0.1l3-2l4.8,3.2l-3.2,2c-0.3,0.2-0.4,0.6-0.2,0.9c0.1,0.2,0.3,0.3,0.6,0.3
			c0.1,0,0.2,0,0.4-0.1l3.3-2.1L37.7,46.4L37.7,46.4z M35,37l-4.5-3c0,0,0,0,0,0l-3.7-2.4l0.5-1.7h4.2c0.4,0,0.7-0.3,0.7-0.7
			c0-0.4-0.3-0.7-0.7-0.7h-4v-2.7h4c0.4,0,0.7-0.3,0.7-0.7c0-0.4-0.3-0.7-0.7-0.7h-4v-2.7h4c0.4,0,0.7-0.3,0.7-0.7
			c0-0.4-0.3-0.7-0.7-0.7h-4v-2.7h3.4c0.4,0,0.7-0.3,0.7-0.7c0-0.4-0.3-0.7-0.7-0.7h-2.9l2.3-4.5l2.6,5.3v11.8c0,0.1,0,0.1,0,0.2
			l0.6,2.2l-1.7,1.1c-0.3,0.2-0.4,0.6-0.2,0.9c0.1,0.2,0.3,0.3,0.6,0.3c0.1,0,0.3,0,0.4-0.1l1.3-0.9L35,37L35,37z"/>
	</g>
</g>
</svg>
