<?xml version="1.0" encoding="utf-8"?>
<!-- Generator: Adobe Illustrator 26.1.0, SVG Export Plug-In . SVG Version: 6.00 Build 0)  -->
<svg version="1.1" id="Layer_1" xmlns="http://www.w3.org/2000/svg" xmlns:xlink="http://www.w3.org/1999/xlink" x="0px" y="0px"
	 viewBox="0 0 200 200" style="enable-background:new 0 0 200 200;" xml:space="preserve">
<style type="text/css">
	.st0{opacity:0.2;fill:#00998F;}
	.st1{fill:#00A89D;}
	.st2{fill:#007873;}
	.st3{fill:#005D59;}
	.st4{fill:#004743;}
	.st5{fill:#006C5E;}
	.st6{fill:#00A9B1;}
	.st7{fill:#004F45;}
	.st8{fill:#008681;}
	.st9{fill:#00998F;}
</style>
<circle class="st0" cx="102.4" cy="100.4" r="88.6"/>
<g>
	<path class="st1" d="M104.7,68.3c0,0,1.1,2.3,4.5,2.9c3.4,0.6,4.8,3.5,4.9,7.9c0,4.5-11.5,0.8-12,1
		C101.6,80.3,104.7,68.3,104.7,68.3z"/>
	<path class="st1" d="M96.8,63.9c0,0,0.4,4.7-2.9,4.5c-2.5-0.2,2.2,4.8,8.8,7.6c4.8,2,12.1,2.1,12.1,2.1s-6.6-6.4-9.2-8.7
		c-2.6-2.3-1.8-8.7-1.8-8.7L96.8,63.9z"/>
	<path class="st1" d="M90.8,55.8c0,0,0.1,10.8,9.8,10.8s10.4-9.1,10.5-11.6c0.1-2.6-2.9-7.2-2.9-7.2s-4.2-2.6-5-3.1
		c-0.8-0.5-4.9,0.4-5.4,0c-0.5-0.4-3.8,3.1-3.8,3.1L90.8,55.8z"/>
	<path class="st2" d="M101.1,47c0,0-0.9,9.3-11.5,9.5c0,0,0.1-2.9,0-6.3C89.4,46.8,100.2,44.2,101.1,47z"/>
	<path class="st2" d="M101.1,47c0,0,0.9,9.3,11.5,9.5c0,0-0.1-2.9,0-6.3C112.7,46.8,102,44.2,101.1,47z"/>
	<path class="st1" d="M132.9,81.3c0,0,2.1,2.1,3.1,9.1c1.3,9.9-8.3,24.7-20.1,18.7c-11.8-6-1-13.3-1-13.3s1.7,4.8,8.6,1.5
		c6.9-3.4,3.1-11.6,3.1-11.6L132.9,81.3z"/>
	<path class="st3" d="M136.6,76.6c0.8,3,0.8,6.5,0.8,7.6c0,1.2-22.8,16.7-22.8,16.7v-8.6L136.6,76.6z"/>
	<path class="st1" d="M77.7,38.1c0.1,0.1-2.9,29.6,16.8,30.4c10.8,0.4-9.5,20-9.5,20s-18.8-11.8-16.8-46L77.7,38.1z"/>
	<path class="st3" d="M66.7,35.5c0,0,0.5,10.6,2.4,13c1.9,2.4,5.3,2.1,6.8,0.7c1.5-1.4,1.9-14.4,1.9-14.4L66.7,35.5z"/>
	<path class="st1" d="M71.7,29.8c-12.7,0-11.8-9.9-8-13.5c3.8-3.6,5.8-9.9,2.8-15.2c0,0,13.1,2.1,14.5,12.8
		C82.3,24.7,81.7,29.8,71.7,29.8z"/>
	<path class="st2" d="M83.2,93.3c0,0-1.7-31,4.1-28.5c8.5,3.7,17,7.7,23,6.8c3.9-0.5-13.8,21.7-13.8,21.7H83.2z"/>
	<path class="st4" d="M117.2,102.3c0,0,0.3,48.7,0,52.1c-0.3,3.3-20-2.1-20-2.1l2.8-38.7L117.2,102.3z"/>
	<path class="st3" d="M109.2,76.7c0,0-4.3,72.8-5.5,78c-1.2,5.1-20.9-1.3-20.9-1.3s-1-58.2,0-60.8C83.9,90,101.5,82.6,109.2,76.7z"
		/>
	<path class="st2" d="M106.7,75.1c0,0-6.3,21.4-25.4,36.7c-2.6,2-1.8,31.3,0,34.4c1.8,3.1,21.8-9.7,25.1-19.5S110.6,81,106.7,75.1z"
		/>
	<path class="st2" d="M103.8,118.2c0,0,5.2,8.5,10.6,8.5c5.4,0,5.6-44.4-1.5-51.6L103.8,118.2z"/>
	<rect x="73.1" y="159.3" class="st5" width="53.9" height="31.3"/>
	<rect x="62.9" y="185.4" class="st6" width="74.4" height="13.6"/>
	<rect x="68.2" y="151.3" class="st6" width="63.6" height="12.6"/>
	<rect x="97.2" y="168" class="st7" width="5.6" height="14.4"/>
	<rect x="82.9" y="168" class="st7" width="5.6" height="14.4"/>
	<rect x="111.6" y="168" class="st7" width="5.6" height="14.4"/>
	<path class="st8" d="M93.9,120.8c-1.3,4.4,5.1,8.7,9,9.7c3.8,1,5.9-13.1,5.9-17.7C108.8,108.2,93.9,120.8,93.9,120.8z"/>
	<path class="st9" d="M107.3,72.7c-0.3,0.9-9.3,39.6-13.4,48c0,0,4.6,0.8,10.8,0c6.2-0.8,3.6-2.6,6.9-8.7c3.3-6.2,2.9-35.1,2.4-37.9
		C113.4,71.4,107.9,70.8,107.3,72.7z"/>
	<path class="st2" d="M60.9,28.4c-1.6,0.7-1.2,7.2,0.7,8.4c1.9,1.2,19.8,2.1,20.8,0c1.1-2.1,1.7-6.3,0-8.4
		C80.7,26.4,64,27.1,60.9,28.4z"/>
	<path class="st2" d="M126.1,66.1c-1.2-0.3-12.5,12.4-12.1,13.5c0.4,1.1,2.1,13.7,3.4,14.1c1.3,0.4,18.4-15.8,19.2-17.1
		C137.4,75.3,128.4,66.8,126.1,66.1z"/>
	<path class="st2" d="M134.7,80.9c-2.2-2.4-7.3,1.4-8.1,6.2c-0.7,4.4,1.6,5.7,4.6,5.7C135.4,92.8,140.7,87.5,134.7,80.9z"/>
	<path class="st1" d="M101.1,47V33.6l-2.2,5.8c0,0-9.5,1.8-9.4,11.5l0,0C89.5,50.9,94.9,47,101.1,47z"/>
	<polygon class="st1" points="96.1,42.5 89.5,38.1 92.8,44.7 	"/>
	<polygon class="st1" points="91.3,47.8 83.4,50.9 89.5,50.9 	"/>
	<path class="st1" d="M101.1,47V33.6l2.2,5.8c0,0,9.5,1.8,9.4,11.5l0,0C112.6,50.9,107.2,47,101.1,47z"/>
	<polygon class="st1" points="106.1,42.5 112.6,38.1 109.3,44.7 	"/>
	<polygon class="st1" points="110.8,47.8 118.7,50.9 112.6,50.9 	"/>
</g>
</svg>
