<?xml version="1.0" encoding="utf-8"?>
<!-- Generator: Adobe Illustrator 27.0.0, SVG Export Plug-In . SVG Version: 6.00 Build 0)  -->
<svg version="1.1" id="Layer_1" xmlns="http://www.w3.org/2000/svg" xmlns:xlink="http://www.w3.org/1999/xlink" x="0px" y="0px"
	 viewBox="0 0 3000 2575.6" style="enable-background:new 0 0 3000 2575.6;" xml:space="preserve">
<style type="text/css">
	.st0{fill:#EFF3F7;}
	.st1{fill:#E1ECF2;}
	.st2{fill:#FFFFFF;}
	.st3{fill:#949899;}
	.st4{fill:#7DA3FB;}
	.st5{fill:#F2889E;}
	.st6{fill:#353640;}
	.st7{fill:#FFAF18;}
	.st8{fill:#7FD4E3;}
	.st9{fill:#F72E70;}
	.st10{fill:#67CFB0;}
	.st11{fill:#36BF91;}
	.st12{fill:#FFCC00;}
	.st13{fill:#FD3E42;}
	.st14{fill:#D7CAE3;}
	.st15{fill:#2C4BFF;}
	.st16{fill:#FFE072;}
	.st17{fill:#2A1D19;}
	.st18{fill:#F59A8E;}
	.st19{fill:#FCCAC3;}
	.st20{fill:#F7607E;}
	.st21{fill:#D0D3D4;}
</style>
<path class="st0" d="M261.2,504.2c6.2-23.5,15.6-45.8,27.5-66.4l-35.5-51.4l40.8-40.8l40.8-40.8l51.4,35.5
	c20.8-12.1,43.1-21.4,66.4-27.5l11.2-61.4h115.4l11.2,61.4c23.3,6.1,45.6,15.4,66.4,27.5l51.4-35.5l40.8,40.8l40.8,40.8l-35.5,51.4
	c12.1,20.8,21.4,43.1,27.5,66.4l61.4,11.2v115.4L781.8,642c-6.2,23.3-15.4,45.6-27.5,66.4l35.5,51.4L749,800.6l-40.8,40.8
	l-51.4-35.5c-20.8,12.1-43.1,21.4-66.4,27.5l-11.2,61.4H463.8l-11.2-61.4c-23.3-6.1-45.6-15.4-66.4-27.5l-51.4,35.5L294,800.6
	l-40.8-40.8l35.5-51.4c-12.1-20.8-21.4-43.1-27.5-66.4l-61.5-11.2V515.4L261.2,504.2L261.2,504.2z M415.8,467.3
	c-27.1,27.1-43.8,64.5-43.8,105.8c0,41.3,16.7,78.7,43.8,105.8c27.1,27.1,64.5,43.8,105.8,43.8s78.7-16.7,105.8-43.8
	c27.1-27.1,43.8-64.5,43.8-105.8c0-41.3-16.7-78.7-43.8-105.8c-27.1-27.1-64.5-43.8-105.8-43.8S442.8,440.3,415.8,467.3z"/>
<path class="st1" d="M662.1,460.3h1813.3c103,0,186.6,56.1,186.6,125.4v1355.3c0,69.2-83.5,125.4-186.6,125.4H662.1
	c-103,0-186.6-56.1-186.6-125.4V585.7C475.6,516.5,559.1,460.3,662.1,460.3z"/>
<path class="st2" d="M1726.4,700.8h619.5c55.5,0,100.5,45,100.5,100.5v619.5c0,55.5-45,100.5-100.5,100.5h-619.5
	c-55.5,0-100.5-45-100.5-100.5V801.4C1625.9,745.8,1670.9,700.8,1726.4,700.8L1726.4,700.8z"/>
<path class="st3" d="M2373,1450.6c-0.7,0-1.3-0.3-1.8-0.8l-335.1-335.1L1701,1449.8c-1,1-2.7,0.9-3.6-0.1c-0.9-1-0.9-2.6,0-3.5
	l335.1-335.1L1697.4,776c-1-1-0.9-2.7,0.1-3.6c1-0.9,2.5-0.9,3.5,0l335.1,335.1l335.1-335.1c1-1,2.7-0.9,3.6,0.1
	c0.9,1,0.9,2.5,0,3.5l-335.1,335.1l335.1,335.1c1,1,1,2.6,0,3.6C2374.3,1450.3,2373.7,1450.6,2373,1450.6L2373,1450.6z"/>
<path class="st2" d="M691.2,700.8H1452v103.2H691.2V700.8z M691.2,904.6H1452v51.6H691.2V904.6z M691.2,1024.1H1452v51.6H691.2
	V1024.1z M691.2,1143.7H1452v51.6H691.2V1143.7z M691.2,1263.2H1452v51.6H691.2V1263.2z M691.2,1382.8h415.7v51.6H691.2V1382.8z"/>
<path class="st4" d="M544.1,460.3h2049.4c37.7,0,68.5,30.8,68.5,68.5v68.5H475.6v-68.5C475.6,491.2,506.4,460.3,544.1,460.3z"/>
<circle class="st2" cx="2295.3" cy="528.9" r="29.2"/>
<circle class="st2" cx="2422.3" cy="528.9" r="29.2"/>
<circle class="st2" cx="2549.3" cy="528.9" r="29.2"/>
<path class="st5" d="M691.2,1614.3h292.2v207.6H691.2V1614.3z"/>
<path class="st6" d="M701.3,1860h272.1v6.9H701.3V1860z M710.6,1884.2H964v6.9H710.6V1884.2z M731.9,1932.5h210.8v6.9H731.9V1932.5z
	 M701.3,1908.4h272.1v6.9H701.3V1908.4z"/>
<path class="st2" d="M1002.8,1805.1H710.6c-1.4,0-2.6-1.2-2.6-2.6v-207.6c0-1.4,1.2-2.6,2.6-2.6h292.2c1.4,0,2.6,1.2,2.6,2.6v207.6
	C1005.3,1803.9,1004.2,1805.1,1002.8,1805.1C1002.8,1805.1,1002.8,1805.1,1002.8,1805.1L1002.8,1805.1z M713.1,1799.9h287v-202.4
	h-287L713.1,1799.9L713.1,1799.9z"/>
<path class="st7" d="M1178.9,1614.3h292.2v207.6h-292.2V1614.3z"/>
<path class="st6" d="M1188.9,1860H1461v6.9h-272.1V1860z M1198.3,1884.2h253.4v6.9h-253.4L1198.3,1884.2z M1219.6,1932.5h210.8v6.9
	h-210.8V1932.5z M1188.9,1908.4H1461v6.9h-272.1V1908.4z"/>
<path class="st2" d="M1490.4,1805.1h-292.2c-1.4,0-2.6-1.2-2.6-2.6v-207.6c0-1.4,1.2-2.6,2.6-2.6h292.2c1.4,0,2.6,1.2,2.6,2.6v207.6
	C1493,1804,1491.8,1805.1,1490.4,1805.1L1490.4,1805.1z M1200.8,1799.9h287v-202.4h-287V1799.9z"/>
<path class="st8" d="M1666.5,1614.3h292.2v207.6h-292.2V1614.3z"/>
<path class="st6" d="M1676.6,1860h272.1v6.9h-272.1V1860z M1685.9,1884.2h253.4v6.9h-253.4V1884.2z M1707.2,1932.5H1918v6.9h-210.8
	V1932.5z M1676.6,1908.4h272.1v6.9h-272.1V1908.4z"/>
<path class="st2" d="M1978.1,1805.1h-292.2c-1.4,0-2.6-1.2-2.6-2.6v-207.6c0-1.4,1.2-2.6,2.6-2.6h292.2c1.4,0,2.6,1.2,2.6,2.6v207.6
	C1980.7,1804,1979.5,1805.1,1978.1,1805.1L1978.1,1805.1z M1688.5,1799.9h287v-202.4h-287V1799.9z"/>
<path class="st5" d="M2154.2,1614.3h292.2v207.6h-292.2V1614.3z"/>
<path class="st6" d="M2164.2,1860h272.1v6.9h-272.1V1860z M2173.6,1884.2H2427v6.9h-253.4V1884.2z M2194.9,1932.5h210.8v6.9h-210.8
	L2194.9,1932.5z M2164.2,1908.4h272.1v6.9h-272.1L2164.2,1908.4z"/>
<path class="st2" d="M2465.8,1805.1h-292.2c-1.4,0-2.6-1.2-2.6-2.6v-207.6c0-1.4,1.2-2.6,2.6-2.6h292.2c1.4,0,2.6,1.2,2.6,2.6v207.6
	C2468.3,1804,2467.2,1805.1,2465.8,1805.1L2465.8,1805.1z M2176.1,1799.9h287v-202.4h-287V1799.9z"/>
<path class="st6" d="M475.6,613.4c-1.4,0-2.5-1.2-2.5-2.7c0-1.4,1.1-2.5,2.5-2.5l2186.4,0c1.4,0,2.5,1.2,2.5,2.7
	c0,1.4-1.1,2.5-2.5,2.5L475.6,613.4L475.6,613.4z"/>
<path class="st4" d="M2606.2,1560.5h47.9v9c0,5.9,4.8,10.7,10.7,10.7h114.5c5.9,0,10.7-4.8,10.7-10.7v-9h47.9
	c20.2,0,36.7,16.5,36.7,36.7v546.6c0,20.2-16.5,36.7-36.7,36.7h-231.8c-20.2,0-36.7-16.5-36.7-36.7v-546.6
	C2569.4,1577,2586,1560.5,2606.2,1560.5z"/>
<path class="st6" d="M2838,2164.1h-231.8c-21.7,0-39.3-17.6-39.3-39.3v-546.6c0-21.7,17.6-39.3,39.3-39.3h47.9
	c1.4,0,2.6,1.2,2.6,2.6v9c0,4.5,3.6,8.1,8.1,8.1h114.5c4.5,0,8.1-3.6,8.1-8.1v-9c0-1.4,1.2-2.6,2.6-2.6h47.9
	c21.7,0,39.3,17.6,39.3,39.3v546.6C2877.3,2146.5,2859.6,2164.1,2838,2164.1z M2606.2,1544.1c-18.8,0-34.1,15.3-34.1,34.1v546.6
	c0,18.8,15.3,34.1,34.1,34.1H2838c18.8,0,34.1-15.3,34.1-34.1v-546.6c0-18.8-15.3-34.1-34.1-34.1h-45.4v6.4c0,7.3-6,13.3-13.3,13.3
	h-114.5c-7.3,0-13.3-6-13.3-13.3v-6.4L2606.2,1544.1L2606.2,1544.1z"/>
<path class="st3" d="M2722.1,2302.1h-1.6c-1.4,0-2.6-1.2-2.6-2.6c0-1,0.6-2,1.6-2.4v-6.4c0-1.4,1.2-2.5,2.7-2.5
	c1.4,0,2.5,1.1,2.5,2.5v8.7C2724.6,2300.9,2723.5,2302.1,2722.1,2302.1C2722.1,2302.1,2722.1,2302.1,2722.1,2302.1z M2705,2302.1
	h-10.3c-1.4,0-2.5-1.2-2.5-2.7c0-1.4,1.1-2.5,2.5-2.5h10.3c1.4,0,2.5,1.2,2.5,2.7C2707.5,2301,2706.4,2302.1,2705,2302.1z
	 M2679.3,2302.1H2669c-1.4,0-2.5-1.2-2.5-2.7c0-1.4,1.1-2.5,2.5-2.5h10.3c1.4,0,2.5,1.2,2.5,2.7
	C2681.7,2301,2680.6,2302.1,2679.3,2302.1z M2653.5,2302.1h-10.3c-1.4,0-2.5-1.2-2.5-2.7c0-1.4,1.1-2.5,2.5-2.5h10.3
	c1.4,0,2.5,1.2,2.5,2.7C2656,2301,2654.9,2302.1,2653.5,2302.1z M2627.7,2302.1h-10.3c-1.4,0-2.5-1.2-2.5-2.7c0-1.4,1.1-2.5,2.5-2.5
	h10.3c1.4,0,2.5,1.2,2.5,2.7C2630.2,2301,2629.1,2302.1,2627.7,2302.1z M2602,2302.1h-10.3c-1.4,0-2.5-1.2-2.5-2.7
	c0-1.4,1.1-2.5,2.5-2.5h10.3c1.4,0,2.5,1.2,2.5,2.7C2604.4,2301,2603.3,2302.1,2602,2302.1z M2576.2,2302.1h-10.3
	c-1.4,0-2.5-1.2-2.5-2.7c0-1.4,1.1-2.5,2.5-2.5h10.3c1.4,0,2.5,1.2,2.5,2.7C2578.6,2301,2577.6,2302.1,2576.2,2302.1z
	 M2550.4,2302.1h-10.3c-1.4,0-2.5-1.2-2.5-2.7c0-1.4,1.1-2.5,2.5-2.5h10.3c1.4,0,2.5,1.2,2.5,2.7
	C2552.9,2301,2551.8,2302.1,2550.4,2302.1z M2524.7,2302.1h-10.3c-1.4,0-2.5-1.2-2.5-2.7c0-1.4,1.1-2.5,2.5-2.5h10.3
	c1.4,0,2.5,1.2,2.5,2.7C2527.1,2301,2526,2302.1,2524.7,2302.1z M2498.9,2302.1h-10.3c-1.4,0-2.5-1.2-2.5-2.7c0-1.4,1.1-2.5,2.5-2.5
	h10.3c1.4,0,2.5,1.2,2.5,2.7C2501.3,2301,2500.2,2302.1,2498.9,2302.1z M2473.1,2302.1h-10.3c-1.4,0-2.5-1.2-2.5-2.7
	c0-1.4,1.1-2.5,2.5-2.5h10.3c1.4,0,2.5,1.2,2.5,2.7C2475.6,2301,2474.5,2302.1,2473.1,2302.1z M2447.3,2302.1H2437
	c-1.4,0-2.5-1.2-2.5-2.7c0-1.4,1.1-2.5,2.5-2.5h10.3c1.4,0,2.5,1.2,2.5,2.7C2449.8,2301,2448.7,2302.1,2447.3,2302.1z
	 M2421.6,2302.1h-10.3c-1.4,0-2.5-1.2-2.5-2.7c0-1.4,1.1-2.5,2.5-2.5h10.3c1.4,0,2.5,1.2,2.5,2.7
	C2424,2301,2422.9,2302.1,2421.6,2302.1z M2395.8,2302.1h-10.3c-1.4,0-2.5-1.2-2.5-2.7c0-1.4,1.1-2.5,2.5-2.5h10.3
	c1.4,0,2.5,1.2,2.5,2.7C2398.3,2301,2397.2,2302.1,2395.8,2302.1z M2370,2302.1h-10.3c-1.4,0-2.5-1.2-2.5-2.7c0-1.4,1.1-2.5,2.5-2.5
	h10.3c1.4,0,2.5,1.2,2.5,2.7C2372.5,2301,2371.4,2302.1,2370,2302.1z M2344.3,2302.1H2334c-1.4,0-2.5-1.2-2.5-2.7
	c0-1.4,1.1-2.5,2.5-2.5h10.3c1.4,0,2.5,1.2,2.5,2.7C2346.7,2301,2345.6,2302.1,2344.3,2302.1z M2318.5,2302.1h-10.3
	c-1.4,0-2.5-1.2-2.5-2.7c0-1.4,1.1-2.5,2.5-2.5h10.3c1.4,0,2.5,1.2,2.5,2.7C2321,2301,2319.9,2302.1,2318.5,2302.1z M2292.7,2302.1
	h-10.3c-1.4,0-2.5-1.2-2.5-2.7c0-1.4,1.1-2.5,2.5-2.5h10.3c1.4,0,2.5,1.2,2.5,2.7C2295.2,2301,2294.1,2302.1,2292.7,2302.1z
	 M2281.4,2287.7c-1.4,0-2.6-1.2-2.6-2.6v-10.3c0-1.4,1.2-2.5,2.7-2.5c1.4,0,2.5,1.1,2.5,2.5v10.3
	C2284,2286.5,2282.8,2287.7,2281.4,2287.7z M2722.1,2277.9c-1.4,0-2.6-1.2-2.6-2.6V2265c0-1.4,1.2-2.5,2.7-2.5
	c1.4,0,2.5,1.1,2.5,2.5v10.3C2724.6,2276.8,2723.5,2277.9,2722.1,2277.9z M2281.4,2261.9c-1.4,0-2.6-1.2-2.6-2.6V2249
	c0-1.4,1.2-2.5,2.7-2.5c1.4,0,2.5,1.1,2.5,2.5v10.3C2284,2260.7,2282.8,2261.9,2281.4,2261.9z M2722.1,2252.1
	c-1.4,0-2.6-1.2-2.6-2.6v-10.3c0-1.4,1.2-2.5,2.7-2.5c1.4,0,2.5,1.1,2.5,2.5v10.3C2724.6,2251,2723.5,2252.1,2722.1,2252.1z
	 M2281.4,2236.1c-1.4,0-2.6-1.2-2.6-2.6v-10.3c0-1.4,1.2-2.5,2.7-2.5c1.4,0,2.5,1.1,2.5,2.5v10.3
	C2284,2235,2282.8,2236.1,2281.4,2236.1z M2722.1,2226.4c-1.4,0-2.6-1.2-2.6-2.6v-10.3c0-1.4,1.2-2.5,2.7-2.5c1.4,0,2.5,1.1,2.5,2.5
	v10.3C2724.6,2225.2,2723.5,2226.4,2722.1,2226.4z M2281.4,2210.3c-1.4,0-2.6-1.2-2.6-2.6v-10.3c0-1.4,1.2-2.5,2.7-2.5
	c1.4,0,2.5,1.1,2.5,2.5v10.3C2284,2209.2,2282.8,2210.3,2281.4,2210.3C2281.4,2210.3,2281.4,2210.3,2281.4,2210.3z M2281.4,2184.6
	c-1.4,0-2.6-1.2-2.6-2.6v-10.3c0-1.4,1.2-2.5,2.7-2.5c1.4,0,2.5,1.1,2.5,2.5v10.3C2284,2183.4,2282.8,2184.6,2281.4,2184.6
	C2281.4,2184.6,2281.4,2184.6,2281.4,2184.6z M2281.4,2158.8c-1.4,0-2.6-1.2-2.6-2.6v-10.3c0-1.4,1.2-2.5,2.7-2.5
	c1.4,0,2.5,1.1,2.5,2.5v10.3C2284,2157.7,2282.8,2158.8,2281.4,2158.8C2281.4,2158.8,2281.4,2158.8,2281.4,2158.8z M2281.4,2133
	c-1.4,0-2.6-1.2-2.6-2.6v-10.3c0-1.4,1.2-2.5,2.7-2.5c1.4,0,2.5,1.1,2.5,2.5v10.3C2284,2131.9,2282.8,2133,2281.4,2133
	C2281.4,2133,2281.4,2133,2281.4,2133z M2281.4,2107.3c-1.4,0-2.6-1.2-2.6-2.6v-10.3c0-1.4,1.2-2.5,2.7-2.5c1.4,0,2.5,1.1,2.5,2.5
	v10.3C2284,2106.1,2282.8,2107.3,2281.4,2107.3C2281.4,2107.3,2281.4,2107.3,2281.4,2107.3z M2936,1333.5h-10.3
	c-1.4,0-2.5-1.2-2.5-2.7c0-1.4,1.1-2.5,2.5-2.5h10.3c1.4,0,2.5,1.2,2.5,2.7C2938.4,1332.4,2937.3,1333.5,2936,1333.5z
	 M2910.2,1333.5h-10.3c-1.4,0-2.5-1.2-2.5-2.7c0-1.4,1.1-2.5,2.5-2.5h10.3c1.4,0,2.5,1.2,2.5,2.7
	C2912.6,1332.4,2911.6,1333.5,2910.2,1333.5z M2884.4,1333.5h-10.3c-1.4,0-2.5-1.2-2.5-2.7c0-1.4,1.1-2.5,2.5-2.5h10.3
	c1.4,0,2.5,1.2,2.5,2.7C2886.9,1332.4,2885.8,1333.5,2884.4,1333.5z M2858.7,1333.5h-10.3c-1.4,0-2.5-1.2-2.5-2.7
	c0-1.4,1.1-2.5,2.5-2.5h10.3c1.4,0,2.5,1.2,2.5,2.7C2861.1,1332.4,2860,1333.5,2858.7,1333.5z M2832.9,1333.5h-10.3
	c-1.4,0-2.5-1.2-2.5-2.7c0-1.4,1.1-2.5,2.5-2.5h10.3c1.4,0,2.5,1.2,2.5,2.7C2835.3,1332.4,2834.2,1333.5,2832.9,1333.5z
	 M2807.1,1333.5h-10.3c-1.4,0-2.5-1.2-2.5-2.7c0-1.4,1.1-2.5,2.5-2.5h10.3c1.4,0,2.5,1.2,2.5,2.7
	C2809.6,1332.4,2808.5,1333.5,2807.1,1333.5z M2781.3,1333.5H2771c-1.4,0-2.5-1.2-2.5-2.7c0-1.4,1.1-2.5,2.5-2.5h10.3
	c1.4,0,2.5,1.2,2.5,2.7C2783.8,1332.4,2782.7,1333.5,2781.3,1333.5z M2755.6,1333.5h-10.3c-1.4,0-2.5-1.2-2.5-2.7
	c0-1.4,1.1-2.5,2.5-2.5h10.3c1.4,0,2.5,1.2,2.5,2.7C2758,1332.4,2756.9,1333.5,2755.6,1333.5z M2729.8,1333.5h-10.3
	c-1.4,0-2.5-1.2-2.5-2.7c0-1.4,1.1-2.5,2.5-2.5h10.3c1.4,0,2.5,1.2,2.5,2.7C2732.3,1332.4,2731.2,1333.5,2729.8,1333.5z
	 M2938.9,1321c-1.4,0-2.6-1.2-2.6-2.6v-10.3c0-1.4,1.2-2.5,2.7-2.5c1.4,0,2.5,1.1,2.5,2.5v10.3
	C2941.5,1319.9,2940.3,1321,2938.9,1321z M2938.9,1295.2c-1.4,0-2.6-1.2-2.6-2.6v-10.3c0-1.4,1.2-2.5,2.7-2.5c1.4,0,2.5,1.1,2.5,2.5
	v10.3C2941.5,1294.1,2940.3,1295.2,2938.9,1295.2z M2938.9,1269.5c-1.4,0-2.6-1.2-2.6-2.6v-10.3c0-1.4,1.2-2.5,2.7-2.5
	c1.4,0,2.5,1.1,2.5,2.5v10.3C2941.5,1268.3,2940.3,1269.5,2938.9,1269.5z M2938.9,1243.7c-1.4,0-2.6-1.2-2.6-2.6v-10.3
	c0-1.4,1.2-2.5,2.7-2.5c1.4,0,2.5,1.1,2.5,2.5v10.3C2941.5,1242.5,2940.3,1243.7,2938.9,1243.7z M2938.9,1217.9
	c-1.4,0-2.6-1.2-2.6-2.6v-10.3c0-1.4,1.2-2.5,2.7-2.5c1.4,0,2.5,1.1,2.5,2.5v10.3C2941.5,1216.8,2940.3,1217.9,2938.9,1217.9z
	 M2938.9,1192.2c-1.4,0-2.6-1.2-2.6-2.6v-10.3c0-1.4,1.2-2.5,2.7-2.5c1.4,0,2.5,1.1,2.5,2.5v10.3
	C2941.5,1191,2940.3,1192.2,2938.9,1192.2z M2938.9,1166.4c-1.4,0-2.6-1.2-2.6-2.6v-10.3c0-1.4,1.2-2.5,2.7-2.5
	c1.4,0,2.5,1.1,2.5,2.5v10.3C2941.5,1165.2,2940.3,1166.4,2938.9,1166.4z M2938.9,1140.6c-1.4,0-2.6-1.2-2.6-2.6v-10.3
	c0-1.4,1.2-2.5,2.7-2.5c1.4,0,2.5,1.1,2.5,2.5v10.3C2941.5,1139.5,2940.3,1140.6,2938.9,1140.6z M2938.9,1114.9
	c-1.4,0-2.6-1.2-2.6-2.6V1102c0-1.4,1.2-2.5,2.7-2.5c1.4,0,2.5,1.1,2.5,2.5v10.3C2941.5,1113.7,2940.3,1114.9,2938.9,1114.9z
	 M2938.9,1089.1c-1.4,0-2.6-1.2-2.6-2.6v-10.3c0-1.4,1.2-2.5,2.7-2.5c1.4,0,2.5,1.1,2.5,2.5v10.3
	C2941.5,1087.9,2940.3,1089.1,2938.9,1089.1z M2938.9,1063.3c-1.4,0-2.6-1.2-2.6-2.6v-10.3c0-1.4,1.2-2.5,2.7-2.5
	c1.4,0,2.5,1.1,2.5,2.5v10.3C2941.5,1062.2,2940.3,1063.3,2938.9,1063.3z M2938.9,1037.6c-1.4,0-2.6-1.2-2.6-2.6v-10.3
	c0-1.4,1.2-2.5,2.7-2.5c1.4,0,2.5,1.1,2.5,2.5v10.3C2941.5,1036.4,2940.3,1037.6,2938.9,1037.6z M2938.9,1011.8
	c-1.4,0-2.6-1.2-2.6-2.6v-10.3c0-1.4,1.2-2.5,2.7-2.5c1.4,0,2.5,1.1,2.5,2.5v10.3C2941.5,1010.6,2940.3,1011.8,2938.9,1011.8z
	 M2931.5,993.4h-10.3c-1.4,0-2.5-1.2-2.5-2.7c0-1.4,1.1-2.5,2.5-2.5h10.3c1.4,0,2.5,1.2,2.5,2.7
	C2934,992.3,2932.9,993.4,2931.5,993.4z M2905.8,993.4h-10.3c-1.4,0-2.5-1.2-2.5-2.7c0-1.4,1.1-2.5,2.5-2.5h10.3
	c1.4,0,2.5,1.2,2.5,2.7C2908.2,992.3,2907.1,993.4,2905.8,993.4z"/>
<path class="st6" d="M2984.5,2547.5H15.5c-1.4,0-2.5-1.2-2.5-2.7c0-1.4,1.1-2.5,2.5-2.5h2969c1.4,0,2.5,1.2,2.5,2.7
	C2987,2546.3,2985.9,2547.4,2984.5,2547.5z"/>
<path class="st9" d="M2069.9,207.2c1.5-5.3,2.3-10.7,2.3-16.2c0-31.8-25.8-57.5-57.5-57.5c-3.2,0-6.3,0.3-9.3,0.8
	c-7.8-46.2-48-81.5-96.5-81.5c-41.5,0-77,25.8-91.2,62.3c-0.5,0-1.1,0-1.6,0c-36.9,0-66.7,29.9-66.7,66.7c0,9,1.8,17.6,5,25.4
	L2069.9,207.2L2069.9,207.2z"/>
<path class="st6" d="M2445.9,2507.5h-315.5c-1,0-2-0.6-2.4-1.6c-3.5-8.4-5.2-17.3-5.2-26.4c0-38.2,31-69.2,69.2-69.3
	c7.4-17.9,19.6-33.2,35.6-44.3c16.9-11.7,36.7-17.9,57.3-17.9c1.4,0,2.5,1.2,2.5,2.7c0,1.4-1.1,2.5-2.5,2.5
	c-39.6,0-74.4,23.8-88.8,60.7c-0.4,1-1.4,1.7-2.5,1.6c-0.5,0-1,0-1.5,0c-35.4,0-64.2,28.8-64.2,64.2c0,7.8,1.4,15.5,4.2,22.8h313.8
	c1.4,0.1,2.5,1.3,2.4,2.8C2448.3,2506.4,2447.2,2507.4,2445.9,2507.5L2445.9,2507.5z"/>
<path class="st10" d="M133.1,1708.8c0,0-5.5-65.3-71.7-69.6C61.4,1639.2,52.3,1718,133.1,1708.8z"/>
<path class="st11" d="M224.3,2078.9c0,0-5.5-65.3-71.7-69.6C152.6,2009.3,143.5,2088.1,224.3,2078.9L224.3,2078.9z M188.9,1850.5
	c0,0-55.8-34.3-98.5,16.4C90.3,1866.9,148.3,1920.9,188.9,1850.5z M327.9,1980.1c0,0-12.1,64.4,50.6,86.2
	C378.5,2066.3,408.2,1992.8,327.9,1980.1z M280.8,1853.6c0,0,55.8,34.3,98.5-16.4C379.4,1837.2,321.4,1783.2,280.8,1853.6z
	 M283.8,1715.2c0,0-55.8-34.3-98.6,16.4C185.2,1731.6,243.3,1785.6,283.8,1715.2z M193.4,1549.2c0,0-30.1-58.2-92.9-36.9
	C100.6,1512.3,122.3,1588.6,193.4,1549.2z M257.9,1294.3c0,0,22.2-61.7-36.2-93.1C221.7,1201.2,180.6,1269,257.9,1294.3z"/>
<path class="st11" d="M295,1471.6c0,0,5.2-65.3-59.4-80.4C235.6,1391.2,213.8,1467.5,295,1471.6z M364.9,1643.7
	c0,0,63.8,15,88.4-46.6C453.3,1597.1,381.2,1564.1,364.9,1643.7L364.9,1643.7z M288.8,1826.2c0,0-21.2-62-86.4-50.1
	C202.4,1776,212.7,1854.6,288.8,1826.2z"/>
<path class="st11" d="M263.8,1590c0,0,55.3,35.2,98.8-14.9C362.6,1575,305.4,1520.1,263.8,1590L263.8,1590z M288.2,1378.9
	c0,0,61.1,23.7,94-33.8C382.2,1345.1,315.4,1302.3,288.2,1378.9z"/>
<path class="st11" d="M372.4,1963.3c0,0,0.6-65.5,66.3-74.8C438.7,1888.5,453.7,1966.4,372.4,1963.3z"/>
<path class="st6" d="M263.4,2205.5L263.4,2205.5c-1.5,0-2.6-1.2-2.6-2.6c0-0.3,0.2-27-9.7-60.7c-9.1-31-28.9-74.5-71.4-105.6
	c-1.1-0.8-1.4-2.5-0.6-3.6c0.8-1.1,2.5-1.4,3.6-0.6c43.7,32,64,76.7,73.4,108.5c10.1,34.4,9.9,60.9,9.9,62.1
	C266,2204.3,264.8,2205.5,263.4,2205.5L263.4,2205.5z"/>
<path class="st6" d="M253.4,2143.4c-1.4,0-2.6-1.2-2.6-2.6c-0.1-115.3,18.5-155,76.7-163.3c54.7-7.8,67.8-46.1,67.9-46.5
	c0.5-1.3,1.9-2.1,3.3-1.6c1.3,0.4,2.1,1.9,1.6,3.2c-0.5,1.7-14.1,41.7-72.1,50c-29,4.1-45.9,15.9-56.7,39.3
	c-10.8,23.5-15.6,60.2-15.6,118.9C256,2142.3,254.9,2143.4,253.4,2143.4C253.4,2143.4,253.4,2143.4,253.4,2143.4L253.4,2143.4
	L253.4,2143.4z"/>
<path class="st6" d="M256.7,2073.7c-1.4,0-2.6-1.1-2.6-2.6c-0.8-136.2-47-194-77.6-232.2c-18.1-22.6-32.3-40.4-29.7-64.3
	c6.1-56-33.8-86.3-50.8-99.2c-1.3-1-2.7-2-4-3.1c-1.1-0.9-1.3-2.5-0.4-3.6c0.9-1.1,2.5-1.3,3.6-0.4c1.1,0.9,2.4,1.9,3.9,3
	c17.7,13.5,59.2,45,52.8,103.9c-2.4,21.8,10.6,38,28.6,60.5c31,38.8,78,97.4,78.8,235.4C259.3,2072.5,258.1,2073.7,256.7,2073.7
	C256.7,2073.7,256.7,2073.7,256.7,2073.7C256.7,2073.7,256.7,2073.7,256.7,2073.7z"/>
<path class="st6" d="M250.3,1994.2c-1.4,0-2.5-1.1-2.6-2.4c-2.1-39.5,10.9-78.8,23.5-116.8c18.2-55,35.3-106.9,10.3-158.6
	c-37.3-76.9-23.9-122.3-3.6-191.1c3.7-12.7,7.6-25.8,11.5-40.2c25.2-92.9-53.3-227.6-54.1-229c-0.7-1.2-0.3-2.8,0.9-3.5
	c1.2-0.7,2.8-0.3,3.5,0.9c0.2,0.3,20.4,34.7,37,80.2c15.5,42.2,31.1,102.9,17.6,152.7c-3.9,14.5-7.8,27.6-11.6,40.3
	c-20.7,70-33.2,112.3,3.2,187.4c26,53.6,7.7,108.9-10,162.4c-12.4,37.6-25.3,76.4-23.2,115c0.1,1.4-1,2.6-2.4,2.7
	C250.4,1994.2,250.3,1994.2,250.3,1994.2L250.3,1994.2z"/>
<path class="st6" d="M261,1641.6c-1.1,0-2.1-0.7-2.5-1.8c-15-47.2-41.4-72.3-60.9-84.9c-21.2-13.7-39-16.4-39.2-16.4
	c-1.4-0.2-2.4-1.5-2.2-2.9c0.2-1.4,1.5-2.4,2.9-2.2c0,0,0,0,0,0c0.8,0.1,19,2.7,41.1,17c20.3,13.1,47.7,39,63.2,87.9
	c0.4,1.4-0.3,2.8-1.7,3.2C261.5,1641.5,261.3,1641.6,261,1641.6L261,1641.6z M296.4,1781.5c-1.4,0-2.6-1.1-2.6-2.6
	c0-0.1,0-0.2,0-0.3c6.6-60.4,33.4-100.2,54.8-122.9c23.2-24.6,44.5-34.8,45.4-35.2c1.3-0.6,2.8,0,3.4,1.3c0.6,1.3,0,2.8-1.2,3.4
	c-0.2,0.1-21.5,10.3-44,34.3c-20.8,22.1-46.8,60.8-53.3,119.7C298.8,1780.5,297.7,1781.5,296.4,1781.5L296.4,1781.5z"/>
<path class="st12" d="M202.8,2140.9h101.3l49.3,404H153.5L202.8,2140.9z"/>
<path class="st5" d="M318.9,2262.5l0.7,6.1c-7.6,5-15.5,10.4-23.5,15.9c-30.1,20.6-60.3,41.2-73.9,40.1c-6.2-0.5-9.4-4.4-8.7-12.8
	c1.6-20.4,27.3-52.1,49.3-79.2c16.9-20.9,31.5-38.9,30.3-44.8c-0.3-1.3-2.8-1.5-8.4-0.3c-19.3,4.1-57.3,32.1-95.3,63.5l1-7.8
	c37.2-30.4,73.9-56.9,93.2-61.1c9.4-2,14-0.2,15,4.5c1.8,8.4-13.6,27.4-31.4,49.4c-21.4,26.4-46.6,57.4-48,76.2
	c-0.4,4.5,1,6.6,3.7,6.8c11.6,0.9,41-19.2,70.4-39.2C301.8,2273.9,310.6,2268,318.9,2262.5z M321.1,2280.5l0.8,6.2
	c-17.8,14.1-39.1,30.4-61.4,47.4c-30.6,23.4-63,48.1-89.8,69.5l0.9-7.6c26-20.8,56.5-44.1,85.5-66.3
	C280.6,2311.9,303,2294.8,321.1,2280.5z M340.7,2441.4l0.7,5.8c-35,18.1-96.4,55.5-145.1,85.1c-7.2,4.4-14.2,8.7-20.8,12.6H165
	l28.5-17.4C242.9,2497.4,305.4,2459.4,340.7,2441.4L340.7,2441.4z M163.3,2544.9h-9.6c13.4-9.5,29.6-20.6,46-32
	c34.4-23.8,70.3-48.6,84.2-58.7c-3.7,1.4-8.1,3.3-12.8,5.2c-19.1,7.9-43.9,18.2-56.7,17.1c-6.7-0.6-10.6-3.8-10-10.9
	c1.1-12.4,29.4-37.8,55-60.6c20.9-18.7,40-35.7,39.4-40.2c0-0.1-1,0.2-3.2,0.5c-15.3,1.9-54.9,27.4-93.5,52.2
	c-12.3,7.9-24.5,15.7-35.9,22.8l0.9-7c10.2-6.4,21.1-13.4,32-20.4c39.1-25.1,79.3-50.9,95.8-53c6-0.7,8.9,0.9,9.4,4.3
	c0.9,7.3-19.2,25.2-41.2,44.9c-24.8,22.2-52.3,46.7-53.1,57c-0.3,3.2,1.6,4.7,4.9,4.9c11.5,1,35.6-9,54.1-16.6
	c9.4-3.9,17.3-7.2,21.9-8.3l0.1,0c2.4-0.6,3.8,0.2,4.3,2.1c1.2,4.7-46.8,37.8-92.5,69.4C188.9,2527.1,175.2,2536.6,163.3,2544.9
	L163.3,2544.9z"/>
<path class="st6" d="M318.1,2177.1h-125c-1.4,0-2.5-1.2-2.5-2.7c0-1.4,1.1-2.5,2.5-2.5h122.4v-28.5H191.3v21.8H294
	c1.4,0,2.5,1.2,2.5,2.7c0,1.4-1.1,2.5-2.5,2.5H188.7c-1.4,0-2.6-1.2-2.6-2.6v-27c0-1.4,1.2-2.6,2.6-2.6h129.4c1.4,0,2.6,1.2,2.6,2.6
	v33.7C320.7,2175.9,319.6,2177.1,318.1,2177.1L318.1,2177.1z"/>
<path class="st2" d="M689,188.2h215.3v138.6H689V188.2z"/>
<path class="st3" d="M904.3,329.4H689c-1.4,0-2.6-1.2-2.6-2.6V188.2c0-1.4,1.2-2.6,2.6-2.6h215.3c1.4,0,2.6,1.2,2.6,2.6v138.6
	C906.9,328.3,905.7,329.4,904.3,329.4C904.3,329.4,904.3,329.4,904.3,329.4z M691.6,324.3h210.1V190.8H691.6L691.6,324.3
	L691.6,324.3z"/>
<path class="st3" d="M796.6,286.8c-0.6,0-1.2-0.2-1.7-0.7l-107.6-96c-1.1-0.9-1.2-2.6-0.2-3.6c0.9-1.1,2.6-1.2,3.6-0.2l0,0
	l105.9,94.4l105.9-94.4c1.1-0.9,2.7-0.8,3.6,0.3c0.9,1,0.8,2.6-0.2,3.5l-107.6,96C797.9,286.5,797.3,286.8,796.6,286.8L796.6,286.8z
	"/>
<path class="st2" d="M689,326.9l90.3-58.1L689,326.9z M814,268.7l90.3,58.1L814,268.7z"/>
<path class="st3" d="M904.3,329.4c-0.5,0-1-0.1-1.4-0.4l-90.3-58.1c-1.2-0.8-1.5-2.4-0.8-3.6c0.8-1.2,2.4-1.5,3.6-0.8l90.3,58.1
	c1.2,0.8,1.5,2.4,0.8,3.6C906,329,905.1,329.4,904.3,329.4L904.3,329.4z M689,329.4c-1.4,0-2.6-1.2-2.6-2.6c0-0.9,0.4-1.7,1.2-2.2
	l90.3-58.1c1.2-0.8,2.8-0.4,3.6,0.8c0.8,1.2,0.4,2.8-0.8,3.6L690.4,329C690,329.3,689.5,329.4,689,329.4L689,329.4z"/>
<circle class="st13" cx="903.5" cy="189.2" r="39.6"/>
<path class="st2" d="M908.9,216.8h-6.8v-43c-1.6,1.6-3.8,3.1-6.4,4.7c-2.6,1.5-5,2.7-7.1,3.5v-6.5c3.8-1.8,7.1-3.9,9.9-6.4
	c2.8-2.5,4.8-5,6-7.3h4.4V216.8z"/>
<path class="st8" d="M2632.9,361.9c2.3-8,3.5-16.3,3.5-24.7c0-48.3-39.2-87.5-87.5-87.5c-4.8,0-9.6,0.4-14.2,1.2
	c-11.9-70.4-73.1-124-146.8-124c-63.1,0-117.1,39.3-138.8,94.8c-0.8,0-1.6,0-2.4,0c-56.1,0-101.5,45.5-101.5,101.5
	c0,13.7,2.7,26.8,7.6,38.7L2632.9,361.9L2632.9,361.9z"/>
<path class="st6" d="M2621.1,349.5h-480c-1,0-2-0.6-2.4-1.6c-5.2-12.6-7.8-25.9-7.8-39.7c0-57.4,46.7-104.1,104.1-104.1l0.7,0
	c11.1-27.4,29.7-50.8,54.1-67.7c25.4-17.7,55.3-27,86.4-27c1.4,0,2.5,1.2,2.5,2.7c0,1.4-1.1,2.5-2.5,2.5
	c-60.7,0-114.3,36.6-136.4,93.1c-0.4,1-1.4,1.7-2.4,1.6l-0.2,0c-0.7,0-1.5,0-2.2,0c-54.6,0-98.9,44.4-98.9,98.9
	c0,12.5,2.3,24.6,6.8,36.1h478.3c1.4,0,2.5,1.2,2.5,2.7C2623.6,348.4,2622.5,349.5,2621.1,349.5L2621.1,349.5z"/>
<path class="st2" d="M2384.9,391.3h-33.8v-75.2H2320l65-68.2l65,68.2h-31.1v75.2H2384.9z"/>
<path class="st6" d="M2418.8,393.9h-67.7c-1.4,0-2.6-1.2-2.6-2.6v-72.6H2320c-1.4,0-2.6-1.2-2.6-2.6c0-0.7,0.3-1.3,0.7-1.8l65-68.2
	c1-1,2.8-1,3.7,0l65,68.2c1,1,0.9,2.7-0.1,3.6c-0.5,0.5-1.1,0.7-1.8,0.7h-28.6v72.6C2421.4,392.7,2420.2,393.9,2418.8,393.9
	C2418.8,393.9,2418.8,393.9,2418.8,393.9L2418.8,393.9z M2353.7,388.7h62.5v-72.6c0-1.4,1.2-2.6,2.6-2.6h25.1l-59-61.9l-59,61.9
	h25.1c1.4,0,2.6,1.2,2.6,2.6L2353.7,388.7L2353.7,388.7z"/>
<path class="st14" d="M2179.5,820.4H2801c40.7,0,73.7,33,73.7,73.7v230.2c0,40.7-33,73.7-73.7,73.7h-621.5
	c-40.7,0-73.7-33-73.7-73.7V894.1C2105.8,853.4,2138.8,820.4,2179.5,820.4z"/>
<path class="st4" d="M2161.1,802h621.5c40.7,0,73.7,33,73.7,73.7V1106c0,40.7-33,73.7-73.7,73.7h-621.5c-40.7,0-73.7-33-73.7-73.7
	V875.7C2087.4,835,2120.4,802,2161.1,802L2161.1,802z"/>
<path class="st6" d="M2768.4,1200.6h-621.5c-42.1,0-76.3-34.2-76.3-76.3V894.1c0-42.1,34.2-76.3,76.3-76.3h621.5
	c42.1,0,76.3,34.2,76.3,76.3v230.2C2844.7,1166.4,2810.4,1200.6,2768.4,1200.6z M2146.9,822.9c-39.2,0-71.1,31.9-71.1,71.1v230.2
	c0,39.2,31.9,71.1,71.1,71.1h621.5c39.2,0,71.1-31.9,71.1-71.1V894.1c0-39.2-31.9-71.1-71.1-71.1H2146.9z"/>
<path class="st0" d="M2596.9,1118.4h-250c-1.4,0-2.6-1.2-2.6-2.6v-250c0-1.4,1.2-2.6,2.6-2.6h250c1.4,0,2.6,1.2,2.6,2.6v250
	C2599.5,1117.3,2598.3,1118.4,2596.9,1118.4z M2349.5,1113.3h244.8V868.4h-244.8V1113.3z"/>
<circle class="st2" cx="2737.5" cy="990.8" r="52.3"/>
<path class="st15" d="M2756.2,993.4h-37.4c-1.4,0-2.5-1.2-2.5-2.7c0-1.4,1.1-2.5,2.5-2.5h31.1l-19.6-19.6c-1-1-1.1-2.6-0.1-3.6
	c1-1,2.6-1.1,3.6-0.1c0,0,0.1,0,0.1,0.1l24,24c1,1,1,2.6,0,3.6C2757.5,993.1,2756.8,993.4,2756.2,993.4L2756.2,993.4z"/>
<path class="st15" d="M2732.1,1017.5c-1.4,0-2.6-1.1-2.6-2.6c0-0.7,0.3-1.3,0.8-1.8l24-24c1-1,2.7-0.9,3.6,0.1c0.9,1,0.9,2.5,0,3.5
	l-24,24C2733.4,1017.2,2732.8,1017.5,2732.1,1017.5L2732.1,1017.5z"/>
<circle class="st2" cx="2206.3" cy="990.8" r="52.3"/>
<path class="st15" d="M2225,993.4h-37.4c-1.4,0-2.6-1.2-2.6-2.6c0-0.7,0.3-1.3,0.8-1.8l24-24c1-1,2.7-0.9,3.6,0.1
	c0.9,1,0.9,2.5,0,3.5l-19.6,19.6h31.1c1.4,0,2.6,1.2,2.6,2.6C2227.6,992.3,2226.4,993.4,2225,993.4z"/>
<path class="st15" d="M2211.7,1017.5c-0.7,0-1.3-0.3-1.8-0.8l-24-24c-1-1-0.9-2.7,0.1-3.6c1-0.9,2.5-0.9,3.5,0l24,24
	c1,1,1,2.6,0,3.6C2213,1017.2,2212.4,1017.5,2211.7,1017.5L2211.7,1017.5z"/>
<path class="st2" d="M2381.2,893h181.5c3.9,0,7.1,3.2,7.1,7.1v181.5c0,3.9-3.2,7.1-7.1,7.1h-181.5c-3.9,0-7.1-3.2-7.1-7.1V900.1
	C2374.1,896.2,2377.3,893,2381.2,893z"/>
<path class="st10" d="M2569.7,1073.6v8c0,3.9-3.2,7.1-7.1,7.1h-181.5c-3.9,0-7-3.2-7.1-7.1v-32.1l66-66l44.2,44.2l19.8-19.8
	L2569.7,1073.6L2569.7,1073.6z"/>
<circle class="st16" cx="2494.2" cy="958.1" r="24.6"/>
<path class="st14" d="M2631.7,1914c1.5-5.7,3.8-11.1,6.7-16.1l-8.6-12.5l9.9-9.9l9.9-9.9l12.5,8.6c5-2.9,10.5-5.2,16.1-6.7l2.7-14.9
	h28l2.7,14.9c5.7,1.5,11.1,3.8,16.1,6.7l12.5-8.6l9.9,9.9l9.9,9.9l-8.6,12.5c2.9,5,5.2,10.5,6.7,16.1l14.9,2.7v28l-14.9,2.7
	c-1.5,5.7-3.8,11.1-6.7,16.1l8.6,12.5l-9.9,9.9l-9.9,9.9l-12.5-8.6c-5,2.9-10.5,5.2-16.1,6.7l-2.7,14.9h-28l-2.7-14.9
	c-5.7-1.5-11.1-3.8-16.1-6.7l-12.5,8.6l-9.9-9.9l-9.9-9.9l8.6-12.5c-2.9-5-5.2-10.5-6.7-16.1l-14.9-2.7v-28L2631.7,1914z
	 M2669.2,1905c-6.8,6.8-10.7,16.1-10.6,25.7c0,10,4.1,19.1,10.6,25.7c6.8,6.8,16.1,10.7,25.7,10.6c10,0,19.1-4.1,25.7-10.6
	c6.8-6.8,10.7-16.1,10.6-25.7c0-9.6-3.8-18.9-10.6-25.7c-6.8-6.8-16.1-10.7-25.7-10.6C2685.3,1894.3,2676,1898.2,2669.2,1905z"/>
<path class="st2" d="M2713.8,2011.5h-29.5c-1.2,0-2.3-0.9-2.5-2.1l-2.6-14.1c-5.1-1.5-10-3.5-14.6-6.1l-11.8,8.2
	c-1,0.7-2.4,0.6-3.3-0.3l-20.9-20.9c-0.9-0.9-1-2.3-0.3-3.3l8.2-11.8c-2.6-4.6-4.6-9.5-6.1-14.6l-14.1-2.6c-1.2-0.2-2.1-1.3-2.1-2.5
	v-29.5c0-1.2,0.9-2.3,2.1-2.5l14.1-2.6c1.5-5.1,3.5-10,6.1-14.6l-8.2-11.8c-0.7-1-0.6-2.4,0.3-3.3l20.9-20.9c0.9-0.9,2.3-1,3.3-0.3
	l11.8,8.2c4.6-2.6,9.5-4.6,14.6-6.1l2.6-14.1c0.2-1.2,1.3-2.1,2.5-2.1h29.5c1.2,0,2.3,0.9,2.5,2.1l2.6,14.1c5.1,1.5,10,3.5,14.6,6.1
	l11.8-8.2c1-0.7,2.4-0.6,3.3,0.3l20.9,20.9c0.9,0.9,1,2.3,0.3,3.3l-8.2,11.8c2.6,4.6,4.6,9.5,6.1,14.6l14.1,2.6
	c1.2,0.2,2.1,1.3,2.1,2.5v29.5c0,1.2-0.9,2.3-2.1,2.5l-14.1,2.6c-1.5,5.1-3.5,10-6.1,14.6l8.2,11.8c0.7,1,0.6,2.4-0.3,3.3
	l-20.9,20.9c-0.9,0.9-2.3,1-3.3,0.3l-11.8-8.2c-4.6,2.6-9.5,4.6-14.6,6.1l-2.6,14.1C2716.1,2010.6,2715,2011.5,2713.8,2011.5z
	 M2686.4,2006.3h25.2l2.5-13.6c0.2-1,0.9-1.8,1.9-2c5.7-1.5,11.2-3.8,16.3-6.8c0.9-0.5,1.9-0.5,2.8,0.1l11.4,7.9l17.8-17.8
	l-7.9-11.4c-0.6-0.8-0.6-1.9-0.1-2.8c3-5.1,5.3-10.6,6.8-16.3c0.3-1,1-1.7,2-1.9l13.6-2.5v-25.2l-13.6-2.5c-1-0.2-1.8-0.9-2-1.9
	c-1.5-5.7-3.8-11.2-6.8-16.3c-0.5-0.9-0.5-1.9,0.1-2.8l7.9-11.4l-17.8-17.8l-11.4,7.9c-0.8,0.6-1.9,0.6-2.8,0.1
	c-5.1-3-10.6-5.3-16.3-6.8c-1-0.3-1.7-1-1.9-2l-2.5-13.6h-25.2l-2.5,13.6c-0.2,1-0.9,1.8-1.9,2c-5.7,1.5-11.2,3.8-16.3,6.8
	c-0.9,0.5-1.9,0.5-2.8-0.1l-11.4-7.9l-17.8,17.8l7.9,11.4c0.6,0.8,0.6,1.9,0.1,2.8c-3,5.1-5.3,10.6-6.8,16.3c-0.3,1-1,1.7-2,1.9
	l-13.6,2.5v25.2l13.6,2.5c1,0.2,1.8,0.9,2,1.9c1.5,5.7,3.8,11.2,6.8,16.3c0.5,0.9,0.5,1.9-0.1,2.8l-7.9,11.4l17.8,17.8l11.4-7.9
	c0.8-0.6,1.9-0.6,2.8-0.1c5.1,3,10.6,5.3,16.3,6.8c1,0.3,1.7,1,1.9,2L2686.4,2006.3L2686.4,2006.3z M2699,1967.4
	c-10.9,0-21.2-4.2-28.9-11.9c-7.7-7.7-12-18-12-28.9c0-10.9,4.2-21.2,12-28.9c7.7-7.7,18-12,28.9-12c10.9,0,21.2,4.2,28.9,12
	c7.7,7.7,12,18,12,28.9c0,10.9-4.2,21.2-12,28.9C2720.2,1963.2,2709.9,1967.4,2699,1967.4L2699,1967.4z M2699,1890.9
	c-9.5,0-18.5,3.7-25.2,10.4c-6.7,6.7-10.5,15.7-10.5,25.2c0,9.5,3.7,18.5,10.5,25.2c6.7,6.7,15.7,10.4,25.2,10.4
	c9.5,0,18.5-3.7,25.2-10.4c6.7-6.7,10.5-15.7,10.5-25.2c0-9.5-3.7-18.5-10.5-25.2C2717.5,1894.6,2708.6,1890.9,2699,1890.9z"/>
<path class="st8" d="M2717,1775.2c1.1-4.2,2.8-8.2,4.9-11.9l-6.4-9.2l7.3-7.3l7.3-7.3l9.2,6.4c3.7-2.2,7.7-3.8,11.9-4.9l2-11h20.7
	l2,11c4.2,1.1,8.2,2.8,11.9,4.9l9.2-6.4l7.3,7.3l7.3,7.3l-6.4,9.2c2.2,3.7,3.8,7.7,4.9,11.9l11,2v20.7l-11,2
	c-1.1,4.2-2.8,8.2-4.9,11.9l6.4,9.2l-7.3,7.3l-7.3,7.3l-9.2-6.4c-3.7,2.2-7.7,3.8-11.9,4.9l-2,11h-20.7l-2-11
	c-4.2-1.1-8.2-2.8-11.9-4.9l-9.2,6.4l-7.3-7.3l-7.3-7.3l6.4-9.2c-2.2-3.7-3.8-7.7-4.9-11.9l-11-2v-20.7L2717,1775.2z M2744.7,1768.6
	c-5,5-7.9,11.8-7.8,19c0,7.4,3,14.1,7.8,18.9c4.8,4.8,11.5,7.9,18.9,7.9c7.4,0,14.1-3,19-7.9c5-5,7.9-11.8,7.8-18.9
	c0-7.4-3-14.1-7.8-19c-5-5-11.8-7.9-19-7.8C2756.6,1760.8,2749.7,1763.6,2744.7,1768.6z"/>
<path class="st2" d="M2777.6,1847.8h-21.8c-1.2,0-2.3-0.9-2.5-2.1l-1.8-10c-3.5-1-6.9-2.5-10.1-4.2l-8.4,5.8c-1,0.7-2.4,0.6-3.3-0.3
	l-15.4-15.4c-0.9-0.9-1-2.3-0.3-3.3l5.8-8.4c-1.7-3.2-3.2-6.6-4.2-10.1l-10-1.8c-1.2-0.2-2.1-1.3-2.1-2.5v-21.8
	c0-1.2,0.9-2.3,2.1-2.5l10-1.8c1-3.5,2.5-6.9,4.2-10.1l-5.8-8.4c-0.7-1-0.6-2.4,0.3-3.3l15.4-15.4c0.9-0.9,2.3-1,3.3-0.3l8.4,5.8
	c3.2-1.7,6.6-3.2,10.1-4.2l1.8-10c0.2-1.2,1.3-2.1,2.5-2.1h21.8c1.2,0,2.3,0.9,2.5,2.1l1.8,10c3.5,1,6.9,2.5,10.1,4.2l8.4-5.8
	c1-0.7,2.4-0.6,3.3,0.3l15.4,15.4c0.9,0.9,1,2.3,0.3,3.3l-5.8,8.4c1.7,3.2,3.2,6.6,4.2,10.1l10,1.8c1.2,0.2,2.1,1.3,2.1,2.5v21.8
	c0,1.2-0.9,2.3-2.1,2.5l-10,1.8c-1,3.5-2.5,6.9-4.2,10.1l5.8,8.4c0.7,1,0.6,2.4-0.3,3.3l-15.4,15.4c-0.9,0.9-2.3,1-3.3,0.3l-8.4-5.8
	c-3.2,1.7-6.6,3.1-10.1,4.2l-1.8,10C2779.9,1846.9,2778.8,1847.8,2777.6,1847.8z M2758,1842.6h17.5l1.7-9.5c0.2-1,0.9-1.8,1.9-2
	c4.2-1.1,8.2-2.8,11.9-4.9c0.9-0.5,1.9-0.5,2.8,0.1l7.9,5.5l12.3-12.3l-5.5-7.9c-0.6-0.8-0.6-1.9-0.1-2.8c2.2-3.7,3.8-7.7,4.9-11.9
	c0.3-1,1-1.7,2-1.9l9.5-1.7v-17.5l-9.5-1.7c-1-0.2-1.8-0.9-2-1.9c-1.1-4.2-2.8-8.2-4.9-11.9c-0.5-0.9-0.5-1.9,0.1-2.8l5.5-7.9
	l-12.3-12.3l-7.9,5.5c-0.8,0.6-1.9,0.6-2.8,0.1c-3.7-2.2-7.7-3.8-11.9-4.9c-1-0.3-1.7-1-1.9-2l-1.7-9.5H2758l-1.7,9.5
	c-0.2,1-0.9,1.8-1.9,2c-4.2,1.1-8.2,2.8-11.9,4.9c-0.9,0.5-1.9,0.5-2.8-0.1l-7.9-5.5l-12.3,12.3l5.5,7.9c0.6,0.8,0.6,1.9,0.1,2.8
	c-2.2,3.7-3.8,7.7-4.9,11.9c-0.3,1-1,1.7-2,1.9l-9.5,1.7v17.5l9.5,1.7c1,0.2,1.8,0.9,2,1.9c1.1,4.2,2.8,8.2,4.9,11.9
	c0.5,0.9,0.5,1.9-0.1,2.8l-5.5,7.9l12.3,12.3l7.9-5.5c0.8-0.6,1.9-0.6,2.8-0.1c3.7,2.2,7.7,3.8,11.9,4.9c1,0.3,1.7,1,1.9,2
	L2758,1842.6L2758,1842.6z M2766.7,1815.3c-8.2,0-15.9-3.2-21.8-9c-5.8-5.8-9-13.6-9-21.8c0-8.2,3.2-15.9,9-21.8
	c5.8-5.8,13.6-9,21.8-9s16,3.2,21.8,9c5.8,5.8,9,13.6,9,21.8c0,8.2-3.2,15.9-9,21.8C2782.7,1812.1,2774.9,1815.3,2766.7,1815.3z
	 M2766.7,1758.9c-6.8,0-13.3,2.7-18.1,7.5c-4.8,4.9-7.5,11.3-7.5,18.1c0,6.8,2.7,13.3,7.5,18.1c4.9,4.8,11.3,7.5,18.1,7.5
	c6.8,0,13.3-2.7,18.1-7.5c4.8-4.9,7.5-11.3,7.5-18.1c0-6.8-2.7-13.3-7.5-18.1C2780,1761.6,2773.5,1758.9,2766.7,1758.9z"/>
<path class="st14" d="M1369.7,2039.3h708.7c15,0,27.2,12.2,27.2,27.2v284.8c0,15-12.2,27.2-27.2,27.2h-708.7
	c-15,0-27.2-12.2-27.2-27.2v-284.8C1342.5,2051.4,1354.7,2039.3,1369.7,2039.3z"/>
<path class="st4" d="M1347.1,2020.3h708.7c15,0,27.2,12.2,27.2,27.2v284.8c0,15-12.2,27.2-27.2,27.2h-708.7
	c-15,0-27.2-12.2-27.2-27.2v-284.8C1320,2032.5,1332.1,2020.3,1347.1,2020.3z"/>
<path class="st6" d="M2042.9,2347.7h-708.7c-16.4,0-29.7-13.3-29.7-29.7v-284.8c0-16.4,13.3-29.7,29.7-29.7h708.7
	c16.4,0,29.7,13.3,29.7,29.7V2318C2072.6,2334.4,2059.3,2347.7,2042.9,2347.7z M1334.2,2008.6c-13.6,0-24.6,11-24.6,24.6V2318
	c0,13.6,11,24.6,24.6,24.6h708.7c13.6,0,24.6-11,24.6-24.6v-284.8c0-13.6-11-24.6-24.6-24.6L1334.2,2008.6L1334.2,2008.6z"/>
<path class="st12" d="M1632.7,2104.3h412.2v21.9h-412.2V2104.3z"/>
<path class="st2" d="M1632.7,2157.7h412.2v11h-412.2V2157.7z M1632.7,2193.3h412.2v11h-412.2V2193.3z M1632.7,2228.9h412.2v11
	h-412.2V2228.9z M1632.7,2264.5h282.8v11h-282.8V2264.5z M1401.8,2078.9H1573c14,0,25.3,11.3,25.3,25.3v171.2
	c0,14-11.3,25.3-25.3,25.3h-171.2c-14,0-25.3-11.3-25.3-25.3v-171.2C1376.5,2090.3,1387.8,2078.9,1401.8,2078.9z"/>
<path class="st14" d="M1148.7,981h278.5c18,0,32.6,14.6,32.6,32.6v278.5c0,18-14.6,32.6-32.6,32.6h-278.5c-18,0-32.6-14.6-32.6-32.6
	v-278.5C1116,995.6,1130.6,981,1148.7,981z"/>
<path class="st2" d="M1152.4,1006.8h271c5.8,0,10.5,4.7,10.5,10.5v271c0,5.8-4.7,10.5-10.5,10.5l0,0h-271c-5.8,0-10.5-4.7-10.5-10.5
	v-271C1141.9,1011.5,1146.6,1006.8,1152.4,1006.8L1152.4,1006.8z"/>
<path class="st8" d="M1433.9,1276.4v12c0,5.8-4.7,10.5-10.5,10.5h-271c-5.8,0-10.5-4.7-10.5-10.5v-47.9l98.5-98.5l65.9,65.9
	l29.5-29.5L1433.9,1276.4L1433.9,1276.4z"/>
<circle class="st16" cx="1321.3" cy="1103.9" r="36.7"/>
<path class="st17" d="M1427.1,1327.3h-278.5c-1.4,0-2.5-1.2-2.5-2.7c0-1.4,1.1-2.5,2.5-2.5h278.5c1.4,0,2.5,1.2,2.5,2.7
	C1429.6,1326.2,1428.5,1327.3,1427.1,1327.3z"/>
<path class="st18" d="M672.5,941.3h63.2l7.8,75.7c-20.5,28.5-44.2,27.7-71-1.7L672.5,941.3L672.5,941.3z"/>
<path class="st19" d="M485.1,1141.4l-7.8-63.3c0,0-22.5-36.5-25.6-43.9c-3.1-7.5,1.9-16.5,1.9-16.5s-1.2-14.3,4.1-18.4
	c0,0,1.1-14.5,6.4-18.6c0,0-3-15.9,11.5-23.5c0,0,18.7,43.2,21.5,44.7c2.8,1.6,16.2,1.9,16.2,1.9s16.8-25.9,23.4-24.9
	c6.5,0.9-11.9,34.9-11.9,34.9l-2.8,38.3l18,84.8C540,1136.9,507.4,1164.6,485.1,1141.4z"/>
<path class="st17" d="M479.6,1013.5L464,980.7C464,980.7,468.1,1002.9,479.6,1013.5z M457.7,999.3l15.1,28.2
	C472.8,1027.5,461.2,1017.5,457.7,999.3z M453.6,1017.7l15.7,26.3C469.3,1044,457.2,1037.1,453.6,1017.7z"/>
<path class="st19" d="M1008,1185.1l62.1-46.5c0,0,30.1-46.5,36.3-52.1c6.3-5.6,49.8-12.6,57.1-8.8c7.3,3.7-45.5,17.8-45.5,17.8
	s43.5-8.2,49.6-4.4c6.1,3.7-43.3,17.5-43.3,17.5s36-8,42.3-4.2c6.3,3.7-36.7,13.8-36.7,13.8s18.9,1.9,22.2,3.7
	c3.4,1.9,11.9,13.1,9,15.1c-2.9,2-12.4-7.3-12.4-7.3l-20.9-1.2c0,0,1.2,23.1-11.5,30.6l-80,72.9
	C1036.4,1231.8,1013,1217.9,1008,1185.1z M809.9,2287.3l29.5,190.2c0,0,12,32.1,42.3,27.2c30.3-4.9,47.8-49.1,47.8-49.1L917.8,2261
	C917.8,2261,841.4,2228.6,809.9,2287.3L809.9,2287.3z"/>
<path class="st20" d="M836.8,2455.6c0,0-6.5,3.7-8.5,17.3c-2,13.6,0,72,0,72H1098c0,0,7.5-70-45.8-70c-53.3,0-122.6-19.4-122.6-19.4
	S875.2,2512.6,836.8,2455.6z"/>
<path class="st21" d="M1097.8,2525.3c-2-20.7-11-50.4-45.7-50.4c-2.8,0-5.7-0.1-8.5-0.2c0,0-16,18.3-5.5,46.1L1097.8,2525.3
	L1097.8,2525.3z"/>
<path class="st17" d="M849,2521.8l239.8,4.3C1088.8,2526.1,1013.4,2512.3,849,2521.8z"/>
<path class="st6" d="M1010.7,2495.9c-10.7,0-85.7-16.4-101-19.8c-1.4-0.3-2.3-1.7-2-3.1c0.3-1.4,1.7-2.3,3.1-2l0,0
	c36,7.9,94.9,20.3,99.9,19.7c3-0.4,6.6-9.7,8.2-18c0.3-1.4,1.6-2.3,3-2.1c0,0,0,0,0,0c1.4,0.3,2.3,1.6,2.1,3c0,0,0,0,0,0
	c-0.6,3.5-4.3,20.9-12.5,22.2C1011.2,2495.8,1010.9,2495.9,1010.7,2495.9L1010.7,2495.9z"/>
<path class="st6" d="M1011.1,2495.8c-1.1,0-2.1-0.7-2.4-1.8l-6.7-20l-23.4,15.8c-1.2,0.8-2.8,0.5-3.6-0.7c-0.1-0.1-0.1-0.2-0.2-0.3
	l-9.5-20.3l-16.8,14.9c-1.1,0.9-2.7,0.8-3.6-0.2c-0.3-0.3-0.5-0.7-0.6-1.2l-3.6-17.7l-13.3,14.4c-1,1-2.6,1-3.6,0
	c-1-1-1-2.5-0.1-3.5l16.7-18.1c0.7-0.7,1.7-1,2.6-0.7c0.9,0.3,1.6,1,1.8,2l3.7,18.2l16.1-14.2c1.1-0.9,2.7-0.8,3.6,0.2
	c0.2,0.2,0.3,0.4,0.4,0.6l9.7,20.7l23.7-16c1.2-0.8,2.8-0.5,3.6,0.7c0.1,0.2,0.2,0.4,0.3,0.6l7.8,23.3c0.5,1.4-0.3,2.8-1.6,3.3
	C1011.6,2495.8,1011.3,2495.8,1011.1,2495.8L1011.1,2495.8z"/>
<path class="st19" d="M491.8,2263.8l-16.3,191.8c0,0,4.1,34,34.7,36.4c30.6,2.4,58-36.4,58-36.4l34.7-191.8
	C602.8,2263.8,536.3,2214.2,491.8,2263.8z"/>
<path class="st20" d="M475.5,2455.6c0,0-6.5,3.7-8.5,17.3c-2,13.6,0,72,0,72h201.7c0,0,7.5-70-45.8-70c-53.3,0-54.7-19.4-54.7-19.4
	s-23.3,28.1-59.3,2C503.5,2453.6,488.6,2453.9,475.5,2455.6L475.5,2455.6z"/>
<path class="st21" d="M669.1,2525.3c-2-20.7-10.9-50.4-45.7-50.4c-2.8,0-5.6-0.1-8.5-0.2h0c0,0,26.8,8.1,21.1,48.1L669.1,2525.3
	L669.1,2525.3z"/>
<path class="st17" d="M487.7,2521.8l174.1,4.3C661.8,2526.1,607,2512.3,487.7,2521.8z"/>
<path class="st6" d="M612.3,2490.4c-8.4,0-46.6-8.5-58.5-24.1c-0.8-1.2-0.6-2.8,0.6-3.6c1.1-0.8,2.6-0.6,3.5,0.5
	c10.7,14.1,48.2,22,54.1,22.1c0.4-1.5-0.3-5.9-1.6-9.8c-0.4-1.4,0.3-2.8,1.7-3.2c1.3-0.4,2.8,0.3,3.2,1.6c0.8,2.4,3.2,10.7,1,14.4
	c-0.7,1.1-1.7,1.9-2.9,2.1C613,2490.4,612.7,2490.4,612.3,2490.4z"/>
<path class="st6" d="M612.9,2490.4c-0.9,0-1.7-0.4-2.2-1.3l-7.8-13l-8,9.6c-0.6,0.7-1.5,1-2.3,0.9c-0.9-0.1-1.6-0.7-2-1.5l-4.6-10.2
	l-6.5,6c-1,1-2.7,0.9-3.6-0.1c-0.3-0.3-0.5-0.7-0.6-1.2l-1.9-7.9l-2.3,4.4c-0.7,1.3-2.2,1.7-3.5,1.1c-1.3-0.7-1.7-2.2-1.1-3.5l0,0
	l5.5-10.4c0.5-0.9,1.5-1.5,2.6-1.3c1.1,0.1,1.9,0.9,2.2,2l2.4,10.3l5.9-5.4c1-1,2.7-0.9,3.6,0.1c0.2,0.2,0.3,0.4,0.5,0.7l4.3,9.7
	l7.7-9.2c0.5-0.6,1.3-1,2.2-0.9c0.8,0.1,1.6,0.5,2,1.2l9.7,16.1c0.7,1.2,0.3,2.8-0.9,3.5C613.9,2490.3,613.4,2490.4,612.9,2490.4
	L612.9,2490.4z"/>
<path class="st15" d="M510.6,1913.1c-21.2,234.7-45.1,514-45.1,514h116.8c0,0,46.7-253.8,90.5-498c0,0-13.4-75.7-82-77.1
	C522.5,1850.7,510.7,1912.7,510.6,1913.1L510.6,1913.1z M739.3,1917.1c42.7,233.9,94.5,510,94.5,510h116.8c0,0-24-272.1-47.1-521.4
	c0-0.1-18.6-87-94-73.4C734.3,1845.9,739.3,1916.8,739.3,1917.1L739.3,1917.1z"/>
<path class="st12" d="M471.1,1101.5l73.9-8.5c0,0,24.5,174.4,31.9,218c7.4,43.7-23.9,99.9-70.8,68.3
	C506.1,1379.3,468.1,1361.3,471.1,1101.5z"/>
<path class="st12" d="M617.1,1198.9c0,0,24.5-64.5,4.1-100.5c-20.4-36-61.8-55.5-61.8-55.5s-25.8,43.5-30.6,87
	c-4.8,43.5-29.9,214.6-29.9,214.6s-3.6,32.1,24.3,42.9c27.9,10.9,59.1-17,62.6-34.3L617.1,1198.9z"/>
<path class="st6" d="M499.9,1340.4c-1.4,0-2.6-1.2-2.6-2.6c0-0.1,0-0.3,0-0.4c4.2-25.4,28.7-206.2,28.9-208c0.2-1.4,1.5-2.4,2.9-2.2
	c1.4,0.2,2.4,1.5,2.2,2.9l0,0c-0.2,1.8-24.8,182.7-28.9,208.2C502.2,1339.5,501.2,1340.4,499.9,1340.4L499.9,1340.4z"/>
<path class="st15" d="M587.2,1434.1c0,0-33,61.1-47.6,179.3c-5.4,43.3-16.7,164.1-29,299.8c0,0.7-1.7,96.5,66.7,97.9
	c68.6,1.3,95.6-81.8,95.6-81.9c36.9-205.4,71.9-403.9,75.5-438.7c7.9-76.1-14.1-75.4-14.1-75.4S644.7,1345.1,587.2,1434.1
	L587.2,1434.1z"/>
<path class="st6" d="M720.9,1662.4h-70.3c-1.4,0-2.5-1.2-2.5-2.7c0-1.4,1.1-2.5,2.5-2.5h70.3c1.4,0,2.6,1.2,2.6,2.6
	C723.5,1661.2,722.4,1662.4,720.9,1662.4z"/>
<path class="st15" d="M684.4,1434.1c0,0-16.3,61.1,1.3,179.3c6.5,43.7,28.5,166.4,53.6,303.7l0,0.1l0.1,0.4c1.3,7,19,91.5,91.2,78.5
	c75.3-13.6,72.9-90,72.9-90.3c-17.6-189.9-34.7-366.5-40.3-399.4c-12.9-76.1-36.9-91.3-36.9-91.3S717.7,1345.1,684.4,1434.1z"/>
<path class="st6" d="M717.3,1798.2c-1.3,0-2.3-0.9-2.5-2.2l-36.4-221.7c-0.3-1.4,0.6-2.8,2-3c1.4-0.3,2.8,0.6,3,2c0,0.1,0,0.1,0,0.2
	l36.4,221.7c0.2,1.4-0.7,2.7-2.1,3C717.5,1798.2,717.4,1798.2,717.3,1798.2z M928.5,2429.7c-1.3,0-2.4-1-2.6-2.3l-55.7-533L824,1576
	c-0.2-1.4,0.8-2.7,2.2-2.9c1.4-0.2,2.7,0.8,2.9,2.2l46.2,318.6l55.7,533.1c0.1,1.4-0.9,2.7-2.3,2.8
	C928.7,2429.7,928.6,2429.7,928.5,2429.7z"/>
<path class="st19" d="M760.1,791.2l14.7,84.1c0,0,9.6,18.3,12.3,23.4c2.7,5.1-8,8.9-8,8.9s4.9,24.4,5.6,38.7
	c0.7,14.2-47.2,61.4-139.6,2c-92.3-59.4-39.4-173.8,25-194.4C734.5,733.2,760.1,791.2,760.1,791.2L760.1,791.2z"/>
<path class="st17" d="M711.9,835.3c0,0-22.4,70.3-11.6,86.9c10.9,16.6,11.6,49.2,22.4,59.8c-0.5-0.5-30.1,7.6-32.8,7.9
	c-14.2,1.2-30.3,1.3-44-4.1c-23.3-9.1-27.3-40.8-40.2-59.7c-21.9-32-51.6-59-37.8-100.8c11.9-36.1,43.8-66.3,76.1-84.5
	C730.3,691.9,818.8,801,711.9,835.3z"/>
<path class="st2" d="M773.4,919.9c0,0-13.4-10-22.9-9c-9.6,1,3.6,27.7,17.1,30C781.1,943.2,778,923.5,773.4,919.9z"/>
<path class="st17" d="M751.4,853.7c2.6-0.7,5.3,0.8,6,3.4l2.2,7.9c0.7,2.6-0.8,5.3-3.3,6s-5.3-0.8-6-3.3c0,0,0-0.1,0-0.1l-2.2-7.9
	C747.3,857.1,748.8,854.4,751.4,853.7C751.4,853.7,751.4,853.7,751.4,853.7L751.4,853.7z M730.4,854.5c2.7-1.3,32.2-5.1,32.5-13
	C763.1,833.6,741.7,836.7,730.4,854.5z"/>
<path class="st7" d="M559.4,1042.8c2.1-4.5,50.9-44.2,118.2-53c67.2-8.8,123.6,36.7,123.6,36.7s30.6,89.7,36,148.1
	c5.4,58.4-10.9,240.5-10.9,240.5H602.2c0,0-42.1-148.1-51.6-244.5C541,1074.1,559.4,1042.8,559.4,1042.8z"/>
<path class="st6" d="M602.2,1417.6c-1.1,0-2.1-0.7-2.5-1.8c-29.8-94.3-47.6-177.9-51.5-241.8c-0.1-1.6-0.2-2.6-0.2-3.2
	c-0.2-1.4,0.9-2.7,2.3-2.8c0,0,0,0,0,0c1.4-0.2,2.7,0.9,2.8,2.3c0,0,0,0,0,0c0.1,0.6,0.1,1.8,0.2,3.5
	c3.9,63.1,21.4,145.6,50.7,238.7l124.7-3.7c1.4-0.1,2.6,1.1,2.7,2.5c0,1.4-1.1,2.6-2.5,2.7L602.2,1417.6L602.2,1417.6z
	 M807.3,1392.4c-0.2,0-0.4,0-0.6-0.1c-59-13-88.2-74.2-89.4-76.8c-0.6-1.3,0-2.8,1.2-3.4c1.3-0.6,2.8,0,3.4,1.2
	c0.3,0.6,29.4,61.5,85.9,74c1.4,0.3,2.3,1.7,2,3.1C809.5,1391.6,808.5,1392.4,807.3,1392.4L807.3,1392.4z"/>
<path class="st12" d="M1062.4,1135.5l-141.6,104.3c0,0-39.5,30.5-33.3,59.7c5.7,27.2,25.4,37.5,41,32.8c5-2.5,10.3-5.8,15.7-9.9
	c55.7-42.1,158.6-134.1,158.6-134.1L1062.4,1135.5z"/>
<path class="st12" d="M920.7,1239.8l-93.1-179.3c0,0-14.3-25.5-26.5-34c-12.2-8.5-82.2,21.7-61.8,76.7
	c20.4,55,115.8,213.6,115.8,213.6s29.1,41.6,78.5,12.5C949.7,1314.1,936.1,1271.9,920.7,1239.8z"/>
<path class="st6" d="M900,1343.2c-29.3,0-46.7-24.5-46.9-24.8c0-0.1-0.1-0.1-0.1-0.2l-96-170.3c-0.7-1.2-0.3-2.8,1-3.5
	c1.2-0.7,2.8-0.3,3.5,1l95.9,170.2c1.8,2.5,27.8,37.8,70.3,14.8c1.3-0.6,2.8-0.1,3.5,1.1c0.6,1.2,0.2,2.7-1,3.4
	C919.1,1340.9,909,1343.2,900,1343.2L900,1343.2z"/>
</svg>
